<svg width="24" height="24" viewBox="0 0 24 24" fill="none" xmlns="http://www.w3.org/2000/svg"><g clip-path="url(#clip0_57_266)"><path fill-rule="evenodd" clip-rule="evenodd" d="M19.0709 3.92896C19.3361 3.92896 19.5905 4.03431 19.778 4.22185C19.9656 4.40938 20.0709 4.66374 20.0709 4.92896V10.586C20.071 10.7423 20.0343 10.8965 19.964 11.0361C19.8937 11.1757 19.7916 11.2969 19.6659 11.39L12.4679 16.71L13.4139 17.657C13.6014 17.8445 13.7067 18.0988 13.7067 18.364C13.7067 18.6291 13.6014 18.8834 13.4139 19.071L11.9999 20.485C11.8515 20.6332 11.6602 20.7311 11.4531 20.7647C11.246 20.7982 11.0336 20.7658 10.8459 20.672L8.66192 19.581L7.04992 21.192C6.8624 21.3794 6.60809 21.4847 6.34292 21.4847C6.07776 21.4847 5.82345 21.3794 5.63592 21.192L2.80792 18.364C2.62045 18.1764 2.51514 17.9221 2.51514 17.657C2.51514 17.3918 2.62045 17.1375 2.80792 16.95L4.41892 15.338L3.32792 13.154C3.2341 12.9663 3.20167 12.7539 3.23523 12.5468C3.26879 12.3397 3.36664 12.1484 3.51492 12L4.92892 10.586C5.11645 10.3985 5.37076 10.2932 5.63592 10.2932C5.90109 10.2932 6.1554 10.3985 6.34292 10.586L7.28992 11.532L12.6099 4.33396C12.7029 4.2083 12.8241 4.1062 12.9638 4.03586C13.1034 3.96553 13.2576 3.92891 13.4139 3.92896H19.0709Z" fill="#48230E"/></g><defs><clipPath id="clip0_57_266"><rect width="24" height="24" fill="white"/></clipPath></defs></svg>