<svg width="77" height="22" viewBox="0 0 77 22" fill="none" xmlns="http://www.w3.org/2000/svg">
<g clip-path="url(#clip0_280_1948)">
<path fill-rule="evenodd" clip-rule="evenodd" d="M75.9099 17.0814H74.4735V21.1463L74.3066 21.3073H72.8999L72.6973 21.1165V17.0874H71.2668L71.0463 16.8729V16.4139L71.2668 16.1933H75.8979L76.0529 16.3364V16.9384L75.9099 17.0814ZM74.1695 15.2398L72.3277 8.78476C72.0714 7.90264 71.9939 7.65826 71.8509 6.97879L71.8986 7.91459L71.9284 8.74897L71.9702 15.0251L71.7556 15.2398H70.1702L69.9436 15.0251V0.601332L70.1762 0.374912H71.8509C71.8509 0.374912 73.7762 7.09199 74.0563 8.27808C74.0638 8.29949 74.0696 8.32146 74.074 8.34371C74.0442 7.83709 74.0622 7.87281 74.0324 7.11586C74.0086 6.65692 73.9787 6.65098 73.9966 0.583434L74.2111 0.374912H75.8145L76.0529 0.607298V14.9834L75.7966 15.2398H74.1695ZM70.0509 21.0927L69.8304 21.3073H68.4237L66.4212 18.6311L66.4866 21.1165L66.29 21.3073H64.9251L64.6926 21.0809V16.408L64.9072 16.1933H66.3197L68.2509 18.7682L68.245 16.3841L68.4297 16.1933H69.8543L70.0509 16.3901V21.0927ZM65.104 15.4364H65.0801C64.665 15.455 64.2515 15.3732 63.8748 15.1979C63.4981 15.0225 63.1694 14.7588 62.9164 14.4291C62.2855 13.5975 61.9144 12.598 61.8495 11.5562C61.7067 10.214 61.6371 8.86511 61.641 7.5153C61.641 4.77954 61.8377 3.34304 62.3443 2.07947C62.5076 1.51596 62.8541 1.02297 63.3291 0.6786C63.8041 0.334228 64.3805 0.158173 64.9669 0.178176C65.5225 0.153178 66.0724 0.298381 66.5432 0.594493C67.014 0.890604 67.3832 1.32352 67.6013 1.83515C68.239 3.17621 68.4476 4.86881 68.4536 8.12908C68.4476 10.7635 68.2271 12.498 67.6966 13.696C67.5093 14.2265 67.1559 14.6825 66.6888 14.996C66.2216 15.3096 65.6659 15.464 65.104 15.4364ZM66.3138 8.0457C66.272 4.72583 66.141 3.46228 65.8072 2.85433C65.747 2.69717 65.6383 2.56332 65.4968 2.47221C65.3554 2.3811 65.1884 2.33741 65.0204 2.34765C64.8973 2.34461 64.7754 2.37188 64.6652 2.42695C64.5551 2.48203 64.46 2.56324 64.3886 2.66356C64.1728 2.94067 64.0406 3.27361 64.0072 3.62323C63.817 5.05725 63.7492 6.50486 63.8045 7.95038C63.8045 10.5431 63.888 11.6398 64.1622 12.4027C64.3648 12.951 64.5853 13.2132 65.0204 13.2192C65.1665 13.2279 65.3124 13.1971 65.4424 13.13C65.5725 13.0628 65.682 12.9619 65.7595 12.8378C65.9985 12.4207 66.1354 11.953 66.1589 11.4728C66.271 10.4656 66.3226 9.45246 66.3138 8.43902V8.0457ZM58.3509 15.2398L58.0887 14.9834V0.655027L58.3688 0.374912H59.9184L60.1748 0.61923V14.9953L59.9303 15.2398H58.3509ZM56.3721 21.3073L56.0323 18.7264L54.888 21.3073H53.7437C53.7437 21.3073 52.6231 19.0662 52.5098 18.7264L52.182 21.3073H50.6444L50.4894 21.0689L51.3775 16.1933H52.8795C52.8795 16.1933 54.1549 18.8338 54.286 19.2272L55.5556 16.1933H57.0813L58.0768 21.063L57.9158 21.3073H56.3721ZM55.0191 2.52052V15.0371L54.8225 15.2398H53.231L53.0225 15.0251L53.0106 2.53842H51.3417L51.0973 2.2941V0.631162L51.3655 0.374912H56.6343L56.8967 0.631162V2.24637L56.6165 2.52052H55.0191ZM51.3655 14.9179L51.1151 15.2398H49.3926L48.886 12.4206H46.8655L46.3588 15.2398H44.6185L44.4158 14.9716L47.0861 0.374912H48.7073L51.3775 14.9239L51.3655 14.9179ZM47.8787 5.49469C47.8608 5.60793 47.1635 10.4775 47.1635 10.4775H48.6118C48.6118 10.4775 48.0039 6.70462 47.8787 5.49469ZM47.5033 18.7682L47.4913 16.3841L47.6762 16.1933H49.1006L49.2973 16.3901V21.0927L49.0827 21.3073H47.6762L45.6615 18.6311L45.7331 21.1165L45.5423 21.3073H44.1714L43.945 21.0809V16.408L44.1535 16.1933H45.5662L47.5033 18.7682ZM41.2629 15.2398L39.4211 8.78476C39.1708 7.90264 39.0933 7.65826 38.9443 6.97879L39.0039 7.91459L39.0218 8.74897L39.0575 15.0251L38.849 15.2398H37.2634L37.043 15.0251V0.601332L37.2694 0.374912H38.9502C38.9502 0.374912 40.8754 7.09199 41.1495 8.27808C41.1572 8.28698 41.1629 8.29759 41.166 8.30893C41.1691 8.32028 41.1696 8.33214 41.1674 8.34371C41.1436 7.83709 41.1614 7.87281 41.1316 7.11586C41.1078 6.65692 41.0781 6.65098 41.09 0.583434L41.3105 0.374912H42.9079L43.1463 0.607298V14.9834L42.89 15.2398H41.2629ZM39.4271 21.0689L39.2721 21.3073H37.7224L37.3052 20.3775H35.4576L35.0283 21.3073H33.5086L33.3596 21.0689L35.7318 16.1933H37.0669L39.4271 21.0689ZM36.3813 18.047L35.8032 19.5311H36.9477L36.3813 18.047ZM33.294 15.2398L33.0913 15.0371V0.601332L33.3178 0.374912H34.8853L35.1536 0.643095V14.9893L34.9092 15.2398H33.294ZM29.7178 15.2398L29.3364 7.68206L28.0787 15.2398H26.684C26.684 15.2398 25.4384 8.57619 25.3132 7.62851L24.9257 15.2398H23.2509L22.9886 14.9716L24.0019 0.374912H25.7722L26.8628 6.44242C27.0714 7.52719 27.2026 8.19465 27.3456 9.3271L27.5959 7.39001L27.7747 6.33518L28.782 0.374912H30.5939L31.7145 14.9893L31.476 15.2398H29.7178ZM24.8125 16.1933C25.4121 16.1633 26.0124 16.2338 26.5887 16.402C26.8635 16.4616 27.1112 16.61 27.2932 16.8244C27.4753 17.0388 27.5816 17.3072 27.5959 17.5881C27.5849 17.9378 27.4428 18.2705 27.1976 18.5201C26.9525 18.7697 26.6222 18.9179 26.2727 18.9351L28.037 21.0152L27.9118 21.3073H26.3324L24.6754 19.3284V21.3073H23.0781L22.8575 21.1046V16.3841L23.0483 16.1933H24.8125ZM24.6575 18.2914C24.9622 18.3055 25.2665 18.2569 25.5516 18.1483C25.6327 18.1121 25.7001 18.051 25.7441 17.9738C25.788 17.8967 25.8061 17.8074 25.7959 17.7192C25.8094 17.6279 25.7977 17.5347 25.762 17.4496C25.7263 17.3645 25.6679 17.2907 25.5933 17.2364C25.3323 17.1099 25.0418 17.0564 24.7529 17.0814H24.6575V18.2914ZM17.7853 21.3073L17.553 21.0868V16.402L17.7615 16.1933H21.5702L21.7668 16.3841V16.8848L21.5702 17.0874H19.3709V18.2615H21.3138L21.5105 18.4583V18.953L21.302 19.1497H19.3767V20.4132H21.5702L21.7787 20.6279V21.1046L21.5702 21.3073H17.7853ZM20.4496 14.8403C19.8991 15.2458 19.2251 15.4482 18.5423 15.4126C17.8758 15.4661 17.2133 15.2692 16.6842 14.8603C16.1552 14.4514 15.7976 13.8597 15.6813 13.2013C15.5421 12.4147 15.4882 11.6153 15.5204 10.8172V0.583434L15.735 0.374912H17.2906L17.5172 0.595366V10.7159C17.4663 11.4055 17.543 12.0985 17.7436 12.7602C17.8033 12.9171 17.9155 13.0485 18.0611 13.1321C18.2066 13.2158 18.3767 13.2465 18.5423 13.2192C18.6985 13.2512 18.8609 13.2292 19.0029 13.1566C19.1448 13.084 19.2577 12.9652 19.3231 12.8199C19.5231 12.2422 19.6002 11.6291 19.5496 11.0199V0.553603L19.7224 0.374912H21.2781L21.5165 0.607298V11.0795C21.5488 11.8966 21.4727 12.7142 21.29 13.5112C21.1614 14.0336 20.8663 14.5001 20.4496 14.8403ZM9.98926 15.2398L9.74495 14.9893V0.643095L10.0191 0.374912H11.5629L11.8072 0.613264V13.1477H14.2867L14.4893 13.3385V15.0251L14.2748 15.2398H9.98926ZM10.6807 16.3901V21.0927L10.4661 21.3073H9.05957L7.05686 18.6311L7.11652 21.1165L6.92575 21.3073H5.56083L5.32248 21.0809V16.408L5.54293 16.1933H6.95558L8.8867 18.7682L8.87477 16.3841L9.06554 16.1933H10.49L10.6807 16.3901ZM4.18994 15.2398L3.93965 14.9893V0.643095L4.20784 0.374912H5.75756L5.99592 0.613264V13.1477H8.48741L8.67803 13.3385V15.0251L8.46355 15.2398H4.18994ZM0.202556 15.2398L0 15.0371V0.601332L0.22642 0.374912H1.78808L2.06223 0.643095V14.9893L1.80583 15.2398H0.202556ZM4.01125 16.1933L4.20187 16.3841V16.8848L4.01125 17.0874H1.79987V18.2615H3.75485L3.93965 18.4583V18.953L3.74888 19.1497H1.8297V20.4132H4.01125L4.21977 20.6279V21.1046L4.01125 21.3073H0.22642L0 21.0868V16.402L0.202556 16.1933H4.01125ZM16.4741 16.1933L16.6231 16.3364V16.9384L16.4801 17.0814H15.0497V21.1463L14.8708 21.3073H13.4641L13.2734 21.1165V17.0874H11.843L11.6225 16.8729V16.4139L11.843 16.1933H16.4741ZM33.3357 16.1933L33.4907 16.3364V16.9384L33.3477 17.0814H31.9231V21.1463L31.7384 21.3073H30.3437L30.1469 21.1165V17.0874H28.7105L28.4899 16.8729V16.4139L28.7105 16.1933H33.3357ZM42.1747 16.1933L42.3416 16.3543V21.1285L42.151 21.3073H40.7443L40.5356 21.1046V16.3841L40.7204 16.1933H42.1747ZM63.2622 16.1933L63.4589 16.3841V16.8848L63.2682 17.0874H61.0569V18.2615H63L63.1966 18.4583V18.953L62.994 19.1497H61.0688V20.4132H63.2622L63.4768 20.6279V21.1046L63.2622 21.3073H59.4833L59.245 21.0868V16.402L59.4536 16.1933H63.2622Z" fill="white"/>
</g>
<defs>
<clipPath id="clip0_280_1948">
<rect width="76.053" height="21.1411" fill="white" transform="translate(0 0.172241)"/>
</clipPath>
</defs>
</svg>
