<svg width="28" height="28" viewBox="0 0 28 28" fill="none" xmlns="http://www.w3.org/2000/svg">
<g clip-path="url(#clip0_280_1950)">
<path fill-rule="evenodd" clip-rule="evenodd" d="M22.271 15.4265H23.4273L22.8014 13.5848L22.271 15.4265ZM10.6843 16.2191C10.8444 16.2113 11.0011 16.1703 11.1446 16.0987C11.288 16.027 11.4151 15.9264 11.5177 15.8031C11.6202 15.6799 11.696 15.5367 11.7403 15.3826C11.7846 15.2285 11.7963 15.0668 11.7749 14.9079V14.2761C11.7873 14.1218 11.7676 13.9668 11.717 13.8205C11.6665 13.6742 11.5863 13.54 11.4813 13.4263C11.3763 13.3126 11.2488 13.2218 11.107 13.1597C10.9652 13.0976 10.8122 13.0656 10.6574 13.0656C10.5026 13.0656 10.3495 13.0976 10.2077 13.1597C10.066 13.2218 9.93861 13.3126 9.83363 13.4263C9.72865 13.54 9.64845 13.6742 9.5979 13.8205C9.54734 13.9668 9.52748 14.1218 9.53984 14.2761C9.508 14.4855 9.508 14.6985 9.53984 14.9079C9.52137 15.2327 9.6308 15.5518 9.84469 15.7969C10.0586 16.0419 10.36 16.1935 10.6843 16.2191ZM27.6293 14.0198L14.0399 0.788086L3.47829 11.6477H2.37559V12.7623L0.808105 14.3954L14.3856 27.6093L24.369 17.3755L26.1213 17.3934L25.6206 16.1L27.6293 14.0198ZM14.2008 5.23442C16.1154 5.23533 17.9806 5.84177 19.5297 6.96691C21.0788 8.09205 22.2323 9.67825 22.8253 11.4987H22.4974C21.9056 9.76848 20.7876 8.2666 19.2999 7.20323C17.8123 6.13986 16.0294 5.56823 14.2008 5.56823C12.3722 5.56823 10.5893 6.13986 9.10169 7.20323C7.61404 8.2666 6.49605 9.76848 5.90416 11.4987H5.54649C6.1461 9.67651 7.30549 8.09008 8.85941 6.96531C10.4133 5.84054 12.2825 5.23478 14.2008 5.23442ZM14.2008 22.2152C15.7186 22.2147 17.2038 21.7748 18.4772 20.9488C19.7505 20.1228 20.7577 18.9459 21.377 17.5602H21.6989C21.0666 19.0256 20.0189 20.274 18.6854 21.1509C17.3519 22.0279 15.7909 22.4952 14.1948 22.4952C12.5988 22.4952 11.0378 22.0279 9.70427 21.1509C8.37076 20.274 7.32326 19.0256 6.69096 17.5602H6.99479C7.61989 18.9478 8.63255 20.1253 9.9109 20.9511C11.1892 21.7769 12.6789 22.2159 14.2008 22.2152ZM7.72804 14.6039C7.70748 14.3399 7.72954 14.0743 7.79352 13.8173C7.79352 12.6729 9.05112 11.7549 10.6067 11.7549C12.1803 11.7549 13.4379 12.6729 13.4379 13.8173C13.4379 13.8173 13.4498 14.3476 13.4498 14.6039C13.4736 14.449 13.4737 14.3953 13.4737 14.6039C13.4737 14.7827 13.4736 14.7291 13.4498 14.6039C13.4498 14.8185 13.4379 15.3848 13.4379 15.3848C13.4379 16.5172 12.1803 17.4351 10.6067 17.4351C9.05112 17.4351 7.79352 16.5172 7.79352 15.3848C7.7344 15.129 7.7124 14.866 7.72804 14.6039ZM17.8128 17.2206L17.1155 14.6517L16.4896 17.2206H14.6956L13.1936 11.8086H14.9399L15.7326 15.2059L16.3822 11.8205H17.8842L18.5757 15.0927L19.2909 11.8086H20.9956L19.5889 17.2206H17.8128ZM14.2008 6.43841C12.6038 6.43206 11.0429 6.9131 9.72653 7.8173C8.41018 8.72149 7.40116 10.0058 6.834 11.4987H6.50615C7.08136 9.92586 8.12595 8.56784 9.49851 7.60834C10.8711 6.64884 12.5053 6.13428 14.18 6.13428C15.8547 6.13428 17.4889 6.64884 18.8615 7.60834C20.234 8.56784 21.2786 9.92586 21.8538 11.4987H21.5558C20.987 10.0093 19.9791 8.72794 18.6656 7.82428C17.3522 6.92062 15.7951 6.43733 14.2008 6.43841ZM2.56039 13.233V11.8205H7.66838V13.2034H6.14848V17.2206H4.25912V13.233H2.56039ZM14.2008 23.4073C12.3594 23.408 10.5613 22.8493 9.0445 21.8051C7.52776 20.761 6.36399 19.2806 5.70743 17.5602H6.0293C6.69247 19.1854 7.82286 20.5775 9.27747 21.56C10.7321 22.5424 12.4455 23.0712 14.2008 23.0794C15.9521 23.0763 17.6623 22.549 19.1112 21.5653C20.5601 20.5817 21.6815 19.1867 22.3307 17.5602H22.6763C22.0179 19.2758 20.8563 20.7524 19.3437 21.7958C17.8311 22.8393 16.0384 23.401 14.2008 23.4073ZM25.877 17.2206H23.9757L23.7432 16.5888H21.9849L21.8061 17.2206H19.9048L21.9432 11.8086H23.7432L25.877 17.2206Z" fill="white"/>
</g>
<defs>
<clipPath id="clip0_280_1950">
<rect width="26.8212" height="26.8212" fill="white" transform="translate(0.808105 0.788086)"/>
</clipPath>
</defs>
</svg>
