<svg width="52" height="31" viewBox="0 0 52 31" fill="none" xmlns="http://www.w3.org/2000/svg">
<g clip-path="url(#clip0_280_1946)">
<path fill-rule="evenodd" clip-rule="evenodd" d="M51.1834 16.9152C51.0213 16.9158 50.8627 16.8684 50.7276 16.7789C50.5925 16.6893 50.4871 16.5617 50.4245 16.4122C50.3619 16.2626 50.345 16.0979 50.376 15.9388C50.4071 15.7797 50.4846 15.6334 50.5988 15.5184C50.713 15.4034 50.8588 15.3248 51.0176 15.2926C51.1765 15.2604 51.3413 15.2759 51.4913 15.3374C51.6412 15.3989 51.7696 15.5036 51.8601 15.638C51.9507 15.7725 51.9994 15.9307 52 16.0928C52.0012 16.2006 51.981 16.3077 51.9405 16.4077C51.8999 16.5076 51.84 16.5986 51.764 16.6751C51.688 16.7517 51.5975 16.8123 51.4978 16.8535C51.3981 16.8947 51.2912 16.9157 51.1834 16.9152ZM51.1834 15.3955C51.0026 15.4029 50.8319 15.4799 50.7066 15.6104C50.5814 15.7409 50.5114 15.9148 50.5114 16.0957C50.5114 16.2766 50.5814 16.4506 50.7066 16.5811C50.8319 16.7116 51.0026 16.7886 51.1834 16.796C51.3641 16.7886 51.535 16.7116 51.6602 16.5811C51.7854 16.4506 51.8555 16.2766 51.8555 16.0957C51.8555 15.9148 51.7854 15.7409 51.6602 15.6104C51.535 15.4799 51.3641 15.4029 51.1834 15.3955ZM51.2072 15.7232C51.1599 15.7217 51.1128 15.7306 51.0693 15.7492C51.0257 15.7678 50.9866 15.7957 50.9549 15.8308C50.9231 15.866 50.8994 15.9075 50.8853 15.9528C50.8713 15.998 50.8673 16.0458 50.8736 16.0928C50.8695 16.1407 50.8751 16.1889 50.8901 16.2346C50.9052 16.2803 50.9293 16.3226 50.961 16.3588C50.9927 16.3949 51.0313 16.4243 51.0747 16.4452C51.118 16.4661 51.1651 16.4779 51.2132 16.4801C51.2765 16.4825 51.3385 16.4612 51.3869 16.4205C51.4354 16.3797 51.467 16.3224 51.4755 16.2597H51.6186C51.6015 16.3548 51.5515 16.4409 51.4774 16.503C51.4034 16.5651 51.3098 16.5993 51.2132 16.5994C51.1473 16.6018 51.0818 16.5903 51.0207 16.5658C50.9595 16.5413 50.9041 16.5043 50.8581 16.4571C50.8121 16.41 50.7764 16.3539 50.7534 16.2921C50.7304 16.2304 50.7206 16.1645 50.7245 16.0987C50.7188 16.0331 50.7271 15.967 50.7491 15.9049C50.7711 15.8428 50.8063 15.786 50.852 15.7386C50.8978 15.6911 50.9531 15.6541 51.0144 15.6299C51.0757 15.6056 51.1414 15.5947 51.2072 15.598C51.304 15.5897 51.4004 15.6193 51.476 15.6804C51.5515 15.7415 51.6005 15.8294 51.6126 15.9259H51.4755C51.4628 15.8654 51.4285 15.8116 51.3792 15.7744C51.3299 15.7371 51.2688 15.7189 51.2072 15.7232ZM49.5385 16.5696H49.5265L45.8609 16.2298C45.8423 16.2286 45.8248 16.2207 45.8117 16.2076C45.7985 16.1944 45.7907 16.1769 45.7894 16.1584L45.7536 10.1206C45.7563 10.099 45.7645 10.0784 45.7775 10.0609C45.795 10.0488 45.8158 10.0427 45.837 10.0432L46.9457 10.1444C46.9644 10.1478 46.9815 10.1572 46.9944 10.1712C47.0073 10.1852 47.0152 10.2029 47.0171 10.2218L47.041 15.002L49.5385 15.2345C49.5573 15.2363 49.5747 15.2454 49.5869 15.2598C49.5992 15.2743 49.6053 15.293 49.6039 15.3119L49.6099 16.4921C49.612 16.5032 49.6109 16.5148 49.6067 16.5254C49.6025 16.5359 49.5953 16.5451 49.586 16.5517C49.5731 16.5636 49.5561 16.5701 49.5385 16.5696ZM44.5556 30.3556H44.0907V29.7656L43.3695 28.7404H43.9357L44.3768 29.3603L44.8357 28.7404H45.3066L44.5556 29.7715V30.3556ZM44.9668 16.1465H44.9609L43.6914 16.051C43.6755 16.0501 43.6602 16.0447 43.6475 16.0351C43.6347 16.0256 43.6251 16.0125 43.6198 15.9975L43.1907 14.7994L41.1285 14.6445L40.6814 15.7769C40.68 15.7848 40.677 15.7923 40.6726 15.799C40.6682 15.8057 40.6625 15.8115 40.6558 15.816C40.6491 15.8204 40.6416 15.8234 40.6337 15.8249C40.6258 15.8263 40.6177 15.8263 40.6098 15.8246L39.5431 15.747C39.5301 15.7468 39.5175 15.7428 39.5068 15.7354C39.4962 15.7279 39.4881 15.7175 39.4834 15.7054C39.4751 15.6969 39.4695 15.6861 39.4674 15.6744C39.4653 15.6627 39.4667 15.6506 39.4715 15.6398L41.7662 9.79869C41.7721 9.78457 41.782 9.77254 41.7948 9.76405C41.8075 9.75557 41.8224 9.7511 41.8377 9.7511L42.7317 9.81659C42.76 9.82452 42.7851 9.84126 42.8033 9.86431L45.0384 16.0391C45.0456 16.0648 45.0435 16.0923 45.0325 16.1166C45.0244 16.1261 45.0142 16.1336 45.0029 16.1387C44.9916 16.1439 44.9793 16.1466 44.9668 16.1465ZM42.1715 11.9862L41.6292 13.3689L42.7019 13.4464L42.1715 11.9862ZM39.5431 30.3556L39.4 30.0457H38.7384L38.5894 30.3556H38.1483L38.9471 28.7404H39.2867L40.0496 30.3556H39.5431ZM39.0782 29.3603L38.9232 29.6703H39.2212L39.0782 29.3603ZM36.9264 11.6763C37.8384 12.0577 39.0841 12.5881 39.0841 13.8517C39.0973 14.0966 39.0619 14.3416 38.9801 14.5727C38.8983 14.8039 38.7715 15.0167 38.6073 15.1987C38.1371 15.6074 37.5241 15.8131 36.9026 15.7709C36.819 15.7729 36.7353 15.7689 36.6523 15.759C35.8871 15.6649 35.1543 15.3935 34.5125 14.9663C34.5004 14.9586 34.4904 14.9479 34.4831 14.9355C34.4759 14.923 34.4717 14.9091 34.4709 14.8947L34.4649 13.5239C34.4643 13.51 34.4679 13.4962 34.4754 13.4844C34.4829 13.4727 34.4937 13.4637 34.5065 13.4584C34.5173 13.4491 34.5312 13.444 34.5454 13.444C34.5596 13.444 34.5733 13.4491 34.5841 13.4584C35.1938 13.9239 35.9008 14.2457 36.6523 14.4C36.7986 14.4269 36.9488 14.4244 37.0941 14.3927C37.2394 14.361 37.3769 14.3008 37.4986 14.2153C37.533 14.1802 37.5594 14.138 37.5759 14.0916C37.5923 14.0453 37.5986 13.996 37.5941 13.947C37.5648 13.8469 37.5097 13.7562 37.4344 13.6841C37.3591 13.6119 37.2662 13.5608 37.1649 13.5358C36.9714 13.4371 36.7724 13.3496 36.5689 13.2736C35.651 12.8921 34.3874 12.3675 34.3814 10.9609C34.3708 10.7495 34.404 10.5384 34.4789 10.3404C34.5538 10.1425 34.6687 9.96206 34.8165 9.81062C35.0405 9.60929 35.3042 9.45701 35.5906 9.3636C35.877 9.27019 36.1797 9.23778 36.4794 9.26829C37.2522 9.35604 37.9987 9.60148 38.6728 9.98946C38.6924 10.0061 38.7052 10.0295 38.7086 10.0551L38.7145 11.3902C38.713 11.4044 38.7086 11.418 38.7014 11.4303C38.6942 11.4427 38.6844 11.4533 38.6728 11.4616C38.6606 11.468 38.6469 11.4708 38.6332 11.4698C38.6195 11.4687 38.6064 11.4638 38.5953 11.4557C37.963 11.0219 37.2387 10.7405 36.4794 10.6332C36.3844 10.6187 36.2875 10.6233 36.1944 10.6469C36.1012 10.6704 36.0138 10.7124 35.9371 10.7703C35.8934 10.8151 35.8678 10.8746 35.8655 10.9372C35.8931 11.0421 35.947 11.1381 36.0221 11.2163C36.0972 11.2945 36.191 11.3524 36.2946 11.3842C36.4675 11.4736 36.694 11.569 36.9264 11.6763ZM35.8774 7.06899C35.8721 7.06895 35.8669 7.06711 35.8626 7.06389C35.8583 7.06067 35.8551 7.05623 35.8536 7.05109V7.02722C35.8641 7.0395 35.8722 7.0537 35.8774 7.06899ZM35.9013 7.19413C35.893 7.19959 35.885 7.20557 35.8774 7.21203C35.8715 7.19415 35.8595 7.18218 35.8536 7.1643C35.8599 7.17368 35.8681 7.18179 35.8774 7.18816C35.8762 7.1755 35.8721 7.16324 35.8655 7.15237C35.8774 7.16429 35.8894 7.18221 35.9013 7.19413ZM35.9371 7.1106H35.9252C35.925 7.09955 35.9207 7.08892 35.9132 7.08077C35.9194 7.08331 35.9248 7.08749 35.9289 7.0927C35.9331 7.09792 35.936 7.10402 35.9371 7.1106ZM35.9431 7.18816C35.9535 7.19321 35.9635 7.19921 35.9729 7.20606V7.23574C35.9602 7.229 35.9498 7.21874 35.9431 7.20606V7.18816ZM36.0384 7.44441C36.0279 7.44206 36.0178 7.43802 36.0085 7.43248V7.40862C36.0215 7.41763 36.0318 7.43002 36.0384 7.44441ZM36.1754 8.00464C36.1691 7.98676 36.1589 7.97059 36.1456 7.95706C36.157 7.96544 36.1671 7.97537 36.1754 7.98674V8.00464ZM35.9252 7.6768C35.9141 7.67036 35.904 7.66245 35.8953 7.65308C35.8923 7.64882 35.8902 7.64396 35.8892 7.63882C35.8882 7.63368 35.8882 7.62836 35.8894 7.62325C35.8984 7.63623 35.9108 7.64655 35.9252 7.65308V7.6768ZM35.8774 7.59939C35.8725 7.59405 35.8664 7.58996 35.8595 7.58745L35.8357 7.56359V7.51004C35.8549 7.53488 35.8729 7.56068 35.8894 7.58745L35.8774 7.59939ZM35.1324 6.52054C35.1351 6.52829 35.1371 6.5363 35.1384 6.54441H35.1324V6.52054ZM34.6734 6.52651C34.6799 6.53026 34.6855 6.53544 34.6896 6.54164C34.6937 6.54784 34.6963 6.55492 34.6973 6.5623C34.6851 6.56324 34.6728 6.56119 34.6615 6.55634V6.53844C34.6615 6.53248 34.6734 6.53247 34.6734 6.52651ZM34.5901 6.54441C34.5839 6.52709 34.5799 6.50902 34.5781 6.49071C34.6529 6.58616 34.6947 6.7033 34.6973 6.82452H34.6854C34.6836 6.81735 34.6794 6.81101 34.6734 6.80662C34.6371 6.77825 34.6076 6.74222 34.587 6.70098C34.5664 6.65974 34.5552 6.61438 34.5543 6.56827C34.5662 6.56231 34.5781 6.55037 34.5901 6.54441ZM34.7749 7.30734C34.757 7.27158 34.7749 7.206 34.757 7.1464C34.7056 7.07765 34.6653 7.00128 34.6378 6.91998C34.6466 6.9258 34.6569 6.92886 34.6675 6.92886C34.6781 6.92886 34.6885 6.9258 34.6973 6.91998C34.7033 6.9021 34.7033 6.87819 34.7092 6.85435C34.7092 6.86031 34.7271 6.86032 34.7271 6.86628C34.822 7.00089 34.8833 7.1562 34.906 7.31927H34.9C34.8882 7.30813 34.8738 7.29994 34.8582 7.29541C34.8642 7.31925 34.8642 7.33719 34.8702 7.36103C34.834 7.35235 34.8011 7.33372 34.7749 7.30734ZM33.2311 4.63118C33.243 4.64311 33.2371 4.6312 33.243 4.64312H33.2311V4.63118ZM33.696 4.25561C33.7227 4.26659 33.7455 4.28532 33.7615 4.30931C33.7433 4.30425 33.7255 4.29826 33.708 4.29141C33.7013 4.28054 33.6973 4.26828 33.696 4.25561ZM33.1834 3.91002C33.2132 3.92194 33.1953 3.90407 33.2013 3.92791L33.1834 3.91002ZM25.8046 1.07889H25.7927L25.8046 1.06696V1.07889ZM24.6661 0.840392V0.858291C24.6518 0.873853 24.6359 0.88788 24.6186 0.900053C24.5297 0.924351 24.4352 0.918036 24.3504 0.882155V0.870223C24.3554 0.860734 24.3592 0.850716 24.3622 0.840392L24.4517 0.804741C24.5245 0.806425 24.5967 0.818355 24.6661 0.840392ZM22.4251 2.31853C22.4377 2.31729 22.45 2.31335 22.4609 2.30674C22.5117 2.30973 22.5618 2.31965 22.6099 2.33642C22.6129 2.35817 22.6129 2.3803 22.6099 2.40205H22.5979C22.5335 2.39159 22.4734 2.36252 22.4251 2.31853ZM23.0867 1.18613C23.1253 1.17694 23.1631 1.16495 23.1999 1.15034C23.2655 1.16226 23.3311 1.17421 23.4026 1.18613C23.3996 1.1864 23.3967 1.18774 23.3945 1.18992C23.3923 1.1921 23.391 1.195 23.3907 1.19807C23.2946 1.21877 23.1969 1.23077 23.0987 1.23386C23.0932 1.21837 23.0892 1.20236 23.0867 1.18613ZM23.5099 1.32917C23.5137 1.31984 23.5199 1.31162 23.5278 1.30531C23.5503 1.29382 23.5745 1.28576 23.5994 1.28145C23.6271 1.28113 23.6541 1.28949 23.6768 1.30531C23.6704 1.31469 23.6623 1.3228 23.6529 1.32917C23.6154 1.35265 23.572 1.36508 23.5278 1.36497L23.5099 1.32917ZM23.6768 1.49608H23.641C23.6336 1.49173 23.6274 1.48556 23.6231 1.47818C23.6406 1.48252 23.6587 1.48453 23.6768 1.48415V1.49608ZM23.8676 1.21C23.8706 1.20973 23.8735 1.2084 23.8757 1.20622C23.8779 1.20404 23.8792 1.20114 23.8795 1.19807C23.9152 1.20999 23.9569 1.22194 23.9867 1.23386V1.25176C23.9867 1.25254 23.9866 1.25322 23.9863 1.25394C23.986 1.25467 23.9855 1.25543 23.985 1.25598C23.9844 1.25653 23.9838 1.25685 23.9831 1.25715C23.9824 1.25744 23.9815 1.25773 23.9808 1.25773C23.9629 1.25773 23.939 1.25176 23.9211 1.25176C23.9032 1.23984 23.8914 1.22788 23.8676 1.21ZM24.0046 1.16227C24.0199 1.16849 24.036 1.17251 24.0524 1.1742V1.18017H24.0046V1.16227ZM24.1238 1.2458C24.1241 1.24815 24.1237 1.25051 24.1226 1.25263C24.1216 1.25476 24.1199 1.25656 24.1178 1.25773H24.094C24.0813 1.25435 24.0695 1.24833 24.0592 1.24012C24.0489 1.23191 24.0405 1.22164 24.0345 1.21C24.0589 1.20856 24.0833 1.21265 24.1059 1.22193C24.1059 1.22789 24.1238 1.23983 24.1238 1.2458ZM24.4218 1.40077H24.398C24.3862 1.39902 24.3749 1.39497 24.3646 1.38884C24.3544 1.3827 24.3455 1.37456 24.3384 1.36497C24.3676 1.37355 24.3955 1.38559 24.4218 1.40077ZM24.69 1.31724V1.32321C24.683 1.32795 24.6745 1.33007 24.6661 1.32917V1.31724H24.69ZM24.8867 1.68685H24.9046C24.8987 1.69281 24.8927 1.69282 24.8867 1.69878V1.68685ZM25.0835 1.82392C25.0869 1.82236 25.0898 1.81981 25.0919 1.81665C25.094 1.81349 25.0953 1.80982 25.0954 1.80603C25.1 1.80594 25.1045 1.80474 25.1086 1.80268C25.1128 1.80062 25.1163 1.79773 25.1191 1.79409C25.132 1.79437 25.1445 1.79854 25.1549 1.80603C25.1671 1.80909 25.1791 1.81308 25.1907 1.81796C25.1901 1.82248 25.188 1.82667 25.1848 1.82989C25.1685 1.83641 25.1509 1.83921 25.1334 1.83818C25.1159 1.83715 25.0989 1.83231 25.0835 1.82392ZM25.6019 1.76426C25.6556 1.76426 25.6437 1.76424 25.6556 1.74636C25.6743 1.74457 25.693 1.74875 25.7092 1.7583C25.715 1.76355 25.7196 1.77001 25.7227 1.77721C25.7258 1.78442 25.7273 1.79223 25.7271 1.80006C25.7172 1.81072 25.7051 1.81892 25.6914 1.82392C25.6553 1.81576 25.6234 1.79447 25.6019 1.76426ZM26.0967 2.54509C26.1079 2.55087 26.12 2.55491 26.1325 2.55702C26.1325 2.5586 26.1319 2.56013 26.1307 2.56124C26.1296 2.56236 26.1281 2.56299 26.1265 2.56299H26.1206C26.0908 2.55703 26.1086 2.56297 26.0967 2.54509ZM26.496 2.90277V2.90859H26.49C26.4855 2.90607 26.4817 2.90265 26.4787 2.89855C26.4756 2.89444 26.4733 2.88987 26.4721 2.88487C26.4781 2.89083 26.49 2.89681 26.496 2.90277ZM25.2205 3.38544C25.4041 3.41272 25.5747 3.49607 25.7092 3.62393V3.6478H25.6914C25.517 3.59357 25.3535 3.50871 25.2086 3.39737C25.2117 3.3971 25.2146 3.39577 25.2168 3.39359C25.2189 3.39141 25.2203 3.38851 25.2205 3.38544ZM25.1907 3.96357C25.1907 3.96357 25.4828 4.03518 25.5305 4.05306V4.06499L25.5245 4.07095C25.474 4.07221 25.4247 4.08648 25.3815 4.11257C25.3568 4.10672 25.3341 4.09448 25.3159 4.07692C25.3159 4.05308 25.3278 4.07094 25.3039 4.05306C25.211 4.02521 25.1269 3.97389 25.0596 3.90405L25.0656 3.89808C25.0889 3.88135 25.1151 3.86918 25.143 3.86229C25.1489 3.86229 25.1549 3.86825 25.1609 3.86825C25.149 3.91594 25.1371 3.90407 25.1728 3.92791C25.1728 3.96368 25.1669 3.95164 25.1907 3.96357ZM23.647 4.41058C23.6462 4.41345 23.6447 4.41606 23.6426 4.41815C23.6405 4.42025 23.6379 4.42177 23.635 4.42252V4.41058H23.647ZM35.8655 6.74114C35.9013 6.79478 35.9252 6.86036 35.961 6.90208C35.9784 6.97424 35.9825 7.04892 35.9729 7.12253C35.9736 7.10446 35.9715 7.08648 35.9669 7.06899C35.9352 7.04402 35.8986 7.02572 35.8595 7.01529C35.8431 7.02103 35.8287 7.0314 35.8179 7.04512C35.8477 7.08343 35.8755 7.12319 35.9013 7.1643C35.8997 7.1643 35.8982 7.16367 35.8971 7.16255C35.896 7.16143 35.8953 7.15991 35.8953 7.15833C35.8596 7.13449 35.806 7.14647 35.8 7.07495H35.7881C35.8343 7.18421 35.8923 7.28799 35.961 7.38475C35.9371 7.37879 35.949 7.36688 35.9371 7.39668C36.0269 7.46828 36.0983 7.56033 36.1456 7.66501C36.1218 7.64117 36.0861 7.61129 36.0622 7.58745C36.0801 7.62321 36.0861 7.647 36.104 7.6768H36.098C36.0805 7.66044 36.0645 7.64257 36.0503 7.62325C36.0384 7.62325 36.0324 7.62326 36.0324 7.62922C36.0618 7.65796 36.0807 7.6957 36.0861 7.73646V7.76032C36.0838 7.75496 36.0795 7.75068 36.0742 7.74839C36.0622 7.73647 36.0563 7.72452 36.0503 7.71856C36.0861 7.79008 36.1218 7.86168 36.1575 7.93916H36.1456C36.1336 7.91988 36.1197 7.90185 36.104 7.88547C36.1126 7.90235 36.1187 7.92049 36.1219 7.93916C36.1154 7.9392 36.1091 7.9371 36.104 7.93319C36.0861 7.89743 36.0801 7.86171 36.0563 7.81998H36.0503C36.0565 7.8373 36.0605 7.85523 36.0622 7.87353H36.0563C36.0513 7.8682 36.0452 7.8641 36.0384 7.8616C36.0088 7.77632 35.9666 7.69601 35.9132 7.62325C35.9133 7.59697 35.9174 7.57078 35.9252 7.54569C35.9021 7.54085 35.8805 7.5309 35.8619 7.51644C35.8433 7.50198 35.8283 7.48346 35.8179 7.46231C35.8115 7.44093 35.8115 7.41807 35.8179 7.39668C35.8 7.40264 35.8119 7.39668 35.8 7.39668C35.7583 7.30728 35.651 7.21194 35.6033 7.12253C35.5616 7.02121 35.5258 6.91391 35.4841 6.81259C35.4199 6.71556 35.3367 6.63251 35.2396 6.56827C35.2167 6.56759 35.1943 6.56145 35.1742 6.55037C35.1874 6.54442 35.2015 6.54039 35.2159 6.53844C35.2142 6.53127 35.2099 6.52493 35.204 6.52054C35.1907 6.51243 35.1786 6.50236 35.1682 6.49071H35.1563C35.1633 6.50669 35.1761 6.51948 35.1921 6.52651C35.1798 6.52863 35.1672 6.52653 35.1563 6.52054C35.1371 6.50127 35.121 6.47923 35.1085 6.45506C35.1171 6.45775 35.1251 6.46179 35.1324 6.46699C35.0847 6.41335 35.0072 6.37759 34.9595 6.31799C34.931 6.24863 34.886 6.18724 34.8284 6.13915C34.8439 6.16106 34.8559 6.1851 34.8642 6.2106C34.8583 6.20464 34.8463 6.19866 34.8404 6.1927C34.8284 6.16886 34.8165 6.13913 34.8046 6.11528C34.8046 6.13317 34.7986 6.14513 34.7986 6.16301L34.7868 6.15705C34.7579 6.09481 34.7239 6.03499 34.6854 5.97821H34.6615C34.6565 5.98954 34.6492 5.99967 34.64 6.0079C34.6307 6.01612 34.6198 6.0223 34.608 6.02594C34.6258 6.07362 34.6615 6.07952 34.6734 6.11528V6.16898C34.7298 6.26821 34.8097 6.35207 34.906 6.4133C34.9703 6.52805 35.0461 6.63592 35.1324 6.73518C35.1741 6.76498 35.2039 6.75296 35.2516 6.78276C35.2481 6.79808 35.2481 6.81407 35.2511 6.82947C35.2542 6.84487 35.2604 6.85943 35.2695 6.87225C35.3447 6.90513 35.4122 6.95341 35.4677 7.01398C35.5231 7.07455 35.5652 7.14611 35.5914 7.22396C35.5339 7.17843 35.4819 7.12642 35.4364 7.06899C35.431 7.07128 35.4267 7.07541 35.4244 7.08077C35.4364 7.13441 35.4483 7.1821 35.4602 7.23574C35.5155 7.27722 35.5553 7.33597 35.5735 7.40265C35.5496 7.41457 35.5555 7.40269 35.5436 7.44441C35.5703 7.49582 35.5767 7.55542 35.5615 7.61132C35.5469 7.60468 35.533 7.59667 35.5199 7.58745C35.5325 7.68722 35.5564 7.78521 35.5914 7.8795H35.5794C35.5556 7.86758 35.2933 7.65903 35.2814 7.64115C35.2694 7.61049 35.2694 7.57635 35.2814 7.54569C35.2874 7.55165 35.2993 7.55763 35.3112 7.56955C35.3094 7.56309 35.3095 7.55629 35.3117 7.54991C35.3138 7.54353 35.3178 7.53782 35.3232 7.53376C35.3366 7.55016 35.3542 7.5628 35.3741 7.57014C35.394 7.57747 35.4155 7.57927 35.4364 7.57552C35.459 7.55193 35.4881 7.53532 35.5199 7.52779C35.4708 7.31097 35.3461 7.11874 35.1682 6.98546C35.1563 6.95566 35.1324 6.92592 35.1205 6.90208C35.0994 6.89477 35.077 6.89272 35.055 6.89611C35.0431 6.89015 34.7808 6.63375 34.7808 6.63375C34.7029 6.44785 34.5612 6.29575 34.3814 6.20463V6.21656C34.3754 6.24636 34.3695 6.28222 34.3635 6.31799C34.336 6.33148 34.3117 6.35066 34.2922 6.3743C34.2727 6.39794 34.2583 6.42548 34.2503 6.45506C34.149 6.41334 34.0834 6.37746 33.9761 6.33574C33.9578 6.35891 33.9378 6.38088 33.9165 6.40137C33.9354 6.50036 33.9718 6.5952 34.0239 6.68148C33.9974 6.72175 33.9674 6.75961 33.9344 6.79469C33.8879 6.81194 33.8454 6.83835 33.8092 6.87225C33.8629 6.99146 33.6722 7.17622 33.8868 7.31927C33.8697 7.35268 33.8497 7.38453 33.8271 7.41458C33.8195 7.47412 33.8216 7.53452 33.8331 7.59342C33.8071 7.59164 33.7809 7.59366 33.7555 7.59939C33.7317 7.64707 33.7199 7.73651 33.696 7.78419C33.6894 7.77494 33.6802 7.76775 33.6697 7.76353C33.6591 7.7593 33.6475 7.7582 33.6364 7.76032C33.6271 7.76784 33.6207 7.77842 33.6185 7.79015C33.5409 7.76873 33.46 7.76264 33.3801 7.77226C33.3427 7.83066 33.2964 7.88294 33.243 7.92723C33.1179 7.90935 33.0523 7.61138 32.9331 7.67098C32.9039 7.68425 32.876 7.70012 32.8497 7.71856C32.7902 7.71551 32.7304 7.71551 32.6709 7.71856C32.6738 7.60054 32.6535 7.48318 32.6112 7.37296C32.5987 7.38311 32.5846 7.39104 32.5695 7.39668C32.5456 7.36688 32.5218 7.34907 32.492 7.3133C32.5268 7.14842 32.5289 6.97825 32.498 6.81259C32.4446 6.7095 32.4008 6.60175 32.3669 6.49071C32.3584 6.4988 32.3482 6.50493 32.3371 6.50861C32.3114 6.46778 32.2913 6.42369 32.2774 6.3775C32.2839 6.37832 32.2906 6.37767 32.2968 6.37561C32.303 6.37355 32.3085 6.37011 32.3132 6.36557C32.3238 6.354 32.3366 6.34482 32.351 6.33865C32.3654 6.33248 32.3811 6.32958 32.3967 6.32992C32.3848 6.29416 32.4026 6.2464 32.4443 6.25833C32.461 6.25529 32.4782 6.25581 32.4947 6.25993C32.5111 6.26404 32.5265 6.27166 32.5398 6.28219C32.6098 6.28622 32.68 6.28018 32.7483 6.26429C32.9349 6.31273 33.1281 6.3309 33.3205 6.31799C33.3158 6.13447 33.2533 5.95707 33.1418 5.81131L33.1477 5.80534C33.1606 5.81667 33.1745 5.82668 33.1893 5.83517C33.1834 5.81729 32.8497 5.50733 32.8437 5.50733C32.7438 5.49475 32.6468 5.46453 32.5575 5.41798C32.5689 5.41356 32.5811 5.41152 32.5933 5.41201C32.5735 5.40447 32.5557 5.39244 32.5412 5.37695C32.5268 5.36145 32.5161 5.34281 32.5099 5.32252H32.5159C32.5683 5.29579 32.6247 5.27777 32.6828 5.26897C32.7101 5.28907 32.7359 5.31089 32.7602 5.33446C32.779 5.32099 32.8007 5.3124 32.8235 5.30928C32.8464 5.30616 32.8697 5.3086 32.8913 5.31656V5.31059C32.8854 5.30621 32.8812 5.29986 32.8794 5.29269C32.846 5.23128 32.8039 5.17519 32.7543 5.12593C32.7563 5.12477 32.758 5.12296 32.7591 5.12084C32.7601 5.11872 32.7605 5.11636 32.7602 5.114C32.8339 5.16538 32.9208 5.19429 33.0105 5.19738C33.0168 5.1895 33.025 5.18333 33.0344 5.17948C32.9986 5.15564 33.0165 5.13188 33.0344 5.10804C33.063 5.10354 33.0899 5.09112 33.1119 5.07224C33.0941 5.02456 33.0702 4.98881 33.0523 4.93516C33.0821 4.8994 33.1536 4.8874 33.1893 4.85164C33.2085 4.75236 33.1939 4.64953 33.1477 4.55959H33.1535C33.1595 4.55959 33.1655 4.5596 33.1655 4.56556C33.1893 4.63708 33.2132 4.7027 33.2371 4.77423C33.2546 4.77857 33.2727 4.78058 33.2908 4.78019C33.2733 4.75567 33.263 4.7267 33.2609 4.69667H33.2729C33.3027 4.70263 33.2906 4.71455 33.3085 4.69667C33.307 4.66552 33.299 4.63511 33.2848 4.60732C33.2771 4.61312 33.2676 4.61634 33.2579 4.61634C33.2482 4.61634 33.2388 4.61312 33.2311 4.60732C33.2192 4.58944 33.2132 4.57747 33.2013 4.55959C33.2042 4.54927 33.2082 4.5394 33.2132 4.52991C33.2441 4.52045 33.2763 4.5164 33.3085 4.51797V4.48218C33.3451 4.48128 33.3816 4.48737 33.4159 4.50008C33.41 4.45835 33.41 4.4762 33.4278 4.46428C33.398 4.41064 33.3622 4.38085 33.3384 4.33317C33.323 4.32826 33.3069 4.32624 33.2908 4.32721C33.3027 4.2676 33.0463 4.06488 33.0224 3.95163C33.0328 3.93999 33.0449 3.93006 33.0582 3.92195H33.0881L33.0702 3.86825C33.0857 3.86131 33.1016 3.85532 33.1179 3.85035C33.163 3.93804 33.2283 4.01372 33.3085 4.07095C33.306 4.08076 33.304 4.0906 33.3026 4.10064C33.2918 4.0993 33.2816 4.09533 33.2729 4.08885C33.2908 4.11269 33.2966 4.16629 33.3145 4.19013C33.3545 4.19036 33.3933 4.20399 33.4246 4.22884C33.456 4.25369 33.478 4.28832 33.4874 4.32721L33.3443 4.23786C33.3384 4.23786 33.3384 4.24965 33.3384 4.24965C33.338 4.25288 33.3383 4.2563 33.3394 4.2594C33.3404 4.26249 33.3421 4.26519 33.3443 4.26754C33.3568 4.26743 33.3691 4.27011 33.3804 4.27526C33.3917 4.28041 33.4019 4.28792 33.4099 4.29737C33.404 4.30334 33.3861 4.30335 33.404 4.30931C33.4422 4.34975 33.4923 4.37697 33.547 4.38687C33.5423 4.38463 33.5382 4.38127 33.5351 4.37712C33.532 4.37297 33.53 4.36812 33.5291 4.363C33.5365 4.36399 33.5436 4.36658 33.5498 4.37071C33.556 4.37485 33.5612 4.38043 33.5649 4.38687C33.5665 4.40872 33.5749 4.42945 33.5888 4.44638C33.5923 4.45076 33.5968 4.45419 33.602 4.45628C33.6072 4.45836 33.6129 4.45905 33.6185 4.45831C33.6337 4.4353 33.642 4.40848 33.6423 4.3809C33.6554 4.38673 33.6699 4.3888 33.6841 4.38687V4.35107C33.7054 4.36942 33.7254 4.38925 33.7438 4.41058C33.7318 4.43443 33.7317 4.41657 33.7496 4.44042C33.8151 4.44638 33.8212 4.50002 33.8689 4.44638C33.8798 4.43977 33.8919 4.43568 33.9045 4.43445V4.41655C33.8032 4.32119 33.702 4.2318 33.5947 4.13644C33.5951 4.13879 33.5946 4.14115 33.5936 4.14328C33.5925 4.1454 33.5909 4.1472 33.5888 4.14837L33.6423 4.21996C33.6423 4.22592 33.6483 4.2319 33.6483 4.23786H33.553C33.5445 4.22298 33.5345 4.20896 33.5232 4.1961C33.5053 4.21398 33.5053 4.19612 33.5053 4.21996C33.5354 4.24112 33.5617 4.26727 33.5828 4.29737V4.35107H33.5411C33.5178 4.33951 33.4989 4.32062 33.4874 4.29737V4.29141C33.5231 4.29737 33.5172 4.31524 33.5291 4.28544C33.4703 4.26131 33.4204 4.21972 33.3861 4.16627C33.3976 4.14302 33.4165 4.12413 33.4398 4.11257C33.4279 4.08873 33.4219 4.059 33.4099 4.03516C33.2013 3.95171 33.1059 3.7014 32.9033 3.60604V3.612C32.9116 3.62261 32.9177 3.6348 32.9212 3.6478C32.9079 3.65521 32.8939 3.66107 32.8794 3.66555C32.8883 3.68445 32.8908 3.70579 32.8865 3.72623C32.8822 3.74667 32.8713 3.7652 32.8555 3.77891C32.8023 3.7834 32.7489 3.77542 32.6993 3.75577C32.6496 3.73612 32.6052 3.70524 32.5695 3.66555C32.5579 3.64037 32.5481 3.61456 32.5398 3.58814C32.5316 3.59483 32.5218 3.59945 32.5114 3.60153C32.501 3.6036 32.4903 3.60309 32.4801 3.60007C32.4073 3.49944 32.3211 3.40923 32.2239 3.33189C32.2239 3.31401 32.2179 3.28414 32.2179 3.26029C32.1881 3.22453 32.1522 3.20074 32.1284 3.16498C32.1491 3.15261 32.1711 3.14258 32.194 3.13515C32.1863 3.12508 32.1808 3.11355 32.1777 3.10125C32.1747 3.08895 32.1741 3.07607 32.1761 3.06356C32.1829 3.06106 32.1891 3.05711 32.194 3.05177C31.7461 2.74973 31.2803 2.47498 30.7993 2.22918C30.6324 2.40203 30.1735 2.16962 29.9888 2.12194C29.9882 2.11595 29.9862 2.11021 29.9831 2.10506C29.98 2.0999 29.9759 2.09544 29.9709 2.09211C29.9762 2.08981 29.9805 2.08553 29.9828 2.08017C30.0057 2.09078 30.0296 2.0988 30.0542 2.10404C30.0483 2.09808 30.0483 2.0921 30.0423 2.08614C29.9601 2.03458 29.8692 1.99829 29.7741 1.9789C29.775 1.97566 29.775 1.97219 29.774 1.969C29.7729 1.96581 29.7708 1.96303 29.7682 1.961C29.7702 1.95983 29.7719 1.95803 29.773 1.9559C29.774 1.95378 29.7744 1.95142 29.7741 1.94907C29.801 1.96249 29.8306 1.96944 29.8606 1.96944C29.8906 1.96944 29.9202 1.96249 29.947 1.94907L29.6728 1.87747C29.6728 1.87747 29.6729 1.86554 29.6788 1.86554C29.6972 1.84786 29.717 1.832 29.7383 1.81796C29.7553 1.82348 29.7714 1.83154 29.7861 1.84182C29.7774 1.82707 29.765 1.81473 29.7503 1.80603C29.8625 1.82568 29.964 1.8849 30.0363 1.97293C30.0602 1.94909 30.0543 1.95504 30.096 1.96696V1.961C30.0791 1.94803 30.0649 1.93177 30.0542 1.91327C30.0947 1.92308 30.1319 1.94374 30.1616 1.97293C30.1616 1.96697 30.1557 1.94906 30.1557 1.9431C30.204 1.9522 30.2518 1.96417 30.2987 1.9789C29.8726 1.78602 29.4368 1.61487 28.9933 1.46625C28.8697 1.42805 28.7385 1.42188 28.6119 1.44835V1.49011C28.4724 1.53884 28.3236 1.55519 28.1768 1.53784C28.1764 1.53327 28.1743 1.529 28.1708 1.52591C28.1848 1.50947 28.1968 1.49141 28.2066 1.47222C28.2007 1.47222 28.1828 1.47818 28.1768 1.47818C28.1656 1.49386 28.1594 1.51261 28.1589 1.53188C28.1016 1.53703 28.044 1.52671 27.992 1.50205H27.9801C27.9933 1.51332 28.0035 1.52769 28.0099 1.54381H27.992C27.9523 1.55064 27.9116 1.5486 27.8728 1.53784V1.54381H27.8907C27.9146 1.56169 27.9324 1.57948 27.9562 1.59736C27.9468 1.60373 27.9389 1.61184 27.9325 1.62122C27.9087 1.6093 27.9086 1.6093 27.8907 1.62122C27.9205 1.63314 27.9146 1.65108 27.9206 1.68088C27.8688 1.71288 27.8125 1.73691 27.7537 1.75233C27.7468 1.78523 27.7532 1.81962 27.7716 1.84779C27.7407 1.90218 27.7002 1.95062 27.6522 1.99083C27.6597 1.99607 27.6653 2.00343 27.6685 2.01193C27.6717 2.02043 27.6723 2.02959 27.6701 2.03841C27.6523 2.03841 27.6522 2.03842 27.6463 2.04438C27.5509 2.01458 27.4496 1.9908 27.3542 1.961C27.3542 1.9312 27.3661 1.94904 27.3423 1.9252C27.2588 1.87156 27.0861 1.87757 26.9788 1.82392C26.9788 1.80604 26.9907 1.81795 26.9788 1.80603C26.9252 1.7643 26.8596 1.74647 26.8059 1.70475C26.7908 1.68566 26.7805 1.66308 26.7761 1.63912C26.7344 1.59144 26.5854 1.51393 26.5437 1.46028C26.5368 1.43527 26.5268 1.41132 26.5139 1.38884C26.5066 1.3915 26.4985 1.3917 26.491 1.38956C26.4835 1.38742 26.4769 1.38304 26.4721 1.3769C26.4662 1.3471 26.4661 1.31722 26.4602 1.29338C26.3966 1.26622 26.3397 1.22557 26.2934 1.1742C26.2934 1.16228 26.2992 1.15032 26.2992 1.13244C26.3126 1.12755 26.3268 1.12551 26.341 1.12647C26.3222 1.11375 26.3062 1.09766 26.2934 1.07889C26.3471 0.906042 26.4542 0.959592 26.6092 0.983433C26.5913 0.947671 26.6152 0.941781 26.639 0.906019C26.6297 0.909865 26.6215 0.916035 26.6152 0.923917C26.5973 0.911997 26.5675 0.906008 26.5437 0.894087C26.5414 0.894394 26.539 0.893985 26.5369 0.892923C26.5347 0.891861 26.5329 0.890189 26.5318 0.888121V0.900053C26.4203 0.910862 26.3078 0.894456 26.2039 0.852324C26.0013 0.828483 25.7986 0.810696 25.59 0.798775C25.5924 0.798468 25.5947 0.798877 25.5968 0.799939C25.599 0.801001 25.6008 0.802674 25.6019 0.804741C25.5885 0.803287 25.5749 0.805207 25.5624 0.810416C25.5499 0.815626 25.5389 0.82384 25.5305 0.834426C25.5619 0.826714 25.5947 0.827111 25.626 0.835445C25.6572 0.843778 25.6858 0.859827 25.7092 0.882155V0.900053C25.7076 0.900053 25.7061 0.900682 25.705 0.901799C25.7038 0.902917 25.7032 0.904438 25.7032 0.906019C25.6768 0.899976 25.651 0.891984 25.6258 0.882155C25.6257 0.886765 25.6247 0.891272 25.6226 0.895397C25.6205 0.899521 25.6175 0.903182 25.6139 0.906019C25.6379 0.904269 25.662 0.907551 25.6846 0.915769C25.7072 0.923987 25.7277 0.937001 25.745 0.953748C25.74 0.959081 25.7339 0.963178 25.7271 0.96568C25.6763 0.950288 25.6245 0.938306 25.5721 0.929884C25.584 0.941804 25.584 0.935873 25.5781 0.959714C25.5662 0.965674 25.5543 0.96554 25.5424 0.971501C25.5961 0.989381 25.6555 1.00731 25.7092 1.01923C25.7048 1.02661 25.6988 1.03277 25.6914 1.03713C25.7237 1.07131 25.7642 1.09644 25.8092 1.11003C25.8541 1.12363 25.9019 1.12529 25.9477 1.11469C25.9417 1.11469 25.9238 1.12647 25.9179 1.12647L25.9298 1.13841C25.9807 1.14306 26.0287 1.16402 26.0669 1.19807C26.0371 1.20403 26.0489 1.19808 26.037 1.21C26.0817 1.21391 26.1237 1.23287 26.1562 1.26369C26.1797 1.26863 26.2038 1.27049 26.2278 1.26951C26.2099 1.28143 26.198 1.26954 26.2099 1.29338C26.2409 1.28462 26.2739 1.28701 26.3033 1.30007C26.3327 1.31314 26.3566 1.33613 26.3708 1.36497C26.3264 1.38001 26.2782 1.38001 26.2338 1.36497C26.2451 1.37663 26.2533 1.39103 26.2576 1.40673L26.2457 1.41852C26.2099 1.4066 26.2337 1.39482 26.2099 1.4127C26.2209 1.41975 26.2293 1.43011 26.2338 1.44238H26.1801V1.4127C26.1635 1.41944 26.1457 1.42177 26.128 1.41968C26.1103 1.4176 26.0933 1.41116 26.0788 1.40077C26.0678 1.40782 26.0594 1.41817 26.0549 1.43045C26.0632 1.43591 26.0712 1.4419 26.0788 1.44835C26.0505 1.45205 26.0227 1.45805 25.9954 1.46625C25.9358 1.41857 25.7569 1.39471 25.7867 1.29934C25.7033 1.29338 25.6199 1.22192 25.5245 1.21C25.5364 1.22192 25.5423 1.23387 25.5542 1.2458C25.5542 1.24738 25.5536 1.2489 25.5525 1.25001C25.5513 1.25113 25.55 1.25176 25.5484 1.25176H25.4887C25.5111 1.26065 25.53 1.27638 25.5429 1.29673C25.5557 1.31707 25.5618 1.34096 25.5602 1.36497C25.6545 1.376 25.7426 1.41788 25.8106 1.48415V1.49608C25.7984 1.49559 25.7862 1.49762 25.7748 1.50205V1.51398C25.8241 1.52726 25.8706 1.5494 25.9119 1.57946V1.59736H25.8642L25.8761 1.62122H25.8701C25.8604 1.61924 25.8516 1.61408 25.8451 1.60652C25.8386 1.59897 25.8349 1.5894 25.8345 1.57946C25.8166 1.60926 25.8285 1.60929 25.7867 1.60929L25.7629 1.58543C25.7622 1.58994 25.7601 1.59414 25.7569 1.59736C25.7642 1.60533 25.7695 1.61484 25.7726 1.62515C25.7757 1.63546 25.7765 1.64638 25.7748 1.65702H25.7688C25.7486 1.65011 25.7286 1.64213 25.7092 1.63315C25.735 1.66663 25.7704 1.69163 25.8106 1.70475V1.71071H25.7927C25.7829 1.71328 25.7729 1.71513 25.7629 1.71653C25.6318 1.63905 25.4828 1.5497 25.3576 1.47818V1.50205C25.3159 1.48416 25.2742 1.45429 25.2265 1.43045C25.2308 1.43978 25.2329 1.45002 25.2325 1.46028C25.363 1.515 25.4806 1.59627 25.5781 1.69878V1.71071C25.5423 1.71071 25.5603 1.6927 25.5484 1.7225C25.3331 1.65918 25.1237 1.57747 24.9225 1.47818V1.48415C24.9464 1.49607 24.9404 1.49014 24.9464 1.51994C24.9394 1.5152 24.9309 1.51309 24.9225 1.51398C24.8874 1.50351 24.8562 1.48268 24.833 1.45432C24.845 1.44836 24.8569 1.44835 24.8688 1.44238C24.844 1.44081 24.82 1.43297 24.7991 1.41939C24.7783 1.40582 24.7612 1.38705 24.7497 1.36497C24.7613 1.37228 24.7747 1.37618 24.7884 1.37618C24.8021 1.37618 24.8155 1.37228 24.8271 1.36497C24.7401 1.34237 24.659 1.30179 24.5887 1.2458C24.4942 1.20521 24.3934 1.18096 24.2907 1.1742C24.2443 1.18288 24.1965 1.18212 24.1504 1.17187C24.1043 1.16163 24.0609 1.14221 24.0225 1.11469C24.0175 1.1052 24.0135 1.09518 24.0106 1.08486C24.0801 1.05875 24.1544 1.04785 24.2284 1.05299C24.3025 1.05813 24.3745 1.07923 24.4397 1.11469C24.5174 1.11286 24.595 1.11671 24.6721 1.12647V1.11469C24.6483 1.09681 24.6245 1.06694 24.6007 1.04906C24.6066 1.04468 24.6108 1.03833 24.6126 1.03116L24.9464 0.995365C24.9318 0.962578 24.9199 0.928746 24.9106 0.894087C24.857 0.882167 24.8331 0.852313 24.7855 0.840392V0.882155C24.8067 0.888998 24.8287 0.893018 24.8509 0.894087V0.923917C24.8205 0.925745 24.7901 0.921355 24.7614 0.911112C24.7328 0.90087 24.7064 0.884928 24.684 0.864257C24.7163 0.861544 24.7489 0.865616 24.7795 0.876189C24.769 0.857432 24.761 0.837486 24.7556 0.816673C24.7079 0.840514 24.6663 0.852418 24.6424 0.798775H24.6661C24.6876 0.804748 24.7103 0.804748 24.7318 0.798775C24.7318 0.792815 24.7258 0.792809 24.7198 0.792809C24.696 0.786849 24.6185 0.786831 24.5708 0.774911C24.3324 0.774911 24.106 0.786855 23.8735 0.798775C23.7901 0.816656 23.6888 0.822511 23.5755 0.840392V0.864257C23.5591 0.848528 23.5411 0.834505 23.5218 0.822494H23.4979C23.497 0.836665 23.499 0.850921 23.5039 0.864257C23.4801 0.852336 23.4563 0.846347 23.4325 0.834426H23.4265V0.840392C23.4497 0.851955 23.4685 0.870842 23.4801 0.894087C23.4979 0.882167 23.486 0.888121 23.5039 0.888121V0.894087L23.492 0.906019C23.4502 0.892104 23.4117 0.869729 23.3788 0.840392C23.3626 0.839425 23.3464 0.841451 23.331 0.846358C23.3489 0.864239 23.343 0.888138 23.3609 0.906019C23.4237 0.958028 23.4941 1.0002 23.5695 1.03116C23.561 1.04787 23.551 1.06387 23.5397 1.07889C23.5863 1.07506 23.6327 1.08775 23.6708 1.11469C23.6768 1.12661 23.6887 1.13245 23.6947 1.14437C23.6426 1.15498 23.589 1.15518 23.5368 1.14495C23.4846 1.13472 23.4349 1.11435 23.3907 1.08486C23.4026 1.08486 23.4086 1.07889 23.4265 1.07889C23.3788 1.06697 23.3431 1.05501 23.3014 1.04309C23.1956 1.09304 23.0776 1.11171 22.9616 1.09679C22.9721 1.08451 22.9802 1.07031 22.9854 1.05503C22.9904 1.05386 22.9952 1.0517 22.9993 1.04862C23.0034 1.04554 23.0068 1.0416 23.0093 1.03713C22.9491 1.04364 22.8882 1.03753 22.8305 1.01923C22.8815 0.991717 22.94 0.981243 22.9974 0.989399C23.0327 0.940141 23.0807 0.901491 23.1363 0.877353C23.192 0.853215 23.2532 0.844503 23.3133 0.852324V0.846358L23.0211 0.882155L23.0093 0.894087C22.8263 0.960446 22.6302 0.982967 22.437 0.959714C22.4186 0.960822 22.4006 0.964712 22.3835 0.971501C22.3954 0.983421 22.4013 0.989428 22.3775 1.01923C22.3041 1.02519 22.2303 1.02519 22.1569 1.01923C22.1683 1.02761 22.1783 1.03769 22.1867 1.04906C21.9014 1.06919 21.6299 1.17987 21.4119 1.36497V1.3948C21.4628 1.389 21.5143 1.39712 21.5609 1.41852C21.5248 1.48561 21.4829 1.54947 21.4357 1.60929H21.6742C21.7338 1.63313 21.7993 1.66897 21.8648 1.69281C21.9066 1.73454 21.9126 1.79412 21.9424 1.82392C22.1442 1.93645 22.3639 2.01302 22.592 2.05034C22.5619 2.09342 22.5234 2.13003 22.4788 2.15773C22.4788 2.18157 22.4847 2.19341 22.4847 2.21725C22.461 2.25778 22.4284 2.29237 22.3894 2.31853C22.45 2.40688 22.4981 2.50328 22.5325 2.60475C22.5466 2.61813 22.5635 2.62816 22.5819 2.63429C22.6004 2.64042 22.6199 2.64239 22.6393 2.64011C22.6586 2.63784 22.6773 2.63145 22.6938 2.6212C22.7104 2.61095 22.7244 2.59718 22.735 2.58089C22.748 2.59836 22.7562 2.61881 22.7589 2.6404C22.7697 2.63906 22.78 2.63494 22.7887 2.62847V2.56299C22.8386 2.55454 22.8856 2.53402 22.9258 2.50333C22.9145 2.46041 22.9147 2.41537 22.9262 2.37251C22.9377 2.32966 22.9602 2.29052 22.9914 2.25901C22.9768 2.24947 22.9652 2.23596 22.9578 2.22016C22.9504 2.20436 22.9476 2.18683 22.9497 2.16952H22.9556C23.0331 2.16356 23.1105 2.16369 23.182 2.15773C23.2712 2.16634 23.3611 2.14962 23.4412 2.10957C23.5213 2.06951 23.5884 2.00765 23.635 1.93117C23.6308 1.88296 23.6121 1.83718 23.5812 1.79991C23.5503 1.76265 23.5089 1.73562 23.4623 1.7225C23.4715 1.70936 23.4794 1.6955 23.486 1.68088C23.5761 1.6704 23.6634 1.64195 23.7424 1.59736C23.734 1.55502 23.7178 1.51464 23.6947 1.47818C23.7192 1.47745 23.7431 1.4712 23.7648 1.45985C23.7865 1.44849 23.8053 1.4324 23.8198 1.4127C23.8088 1.40626 23.7987 1.39821 23.79 1.38884C23.7943 1.37951 23.7964 1.36927 23.796 1.35901C23.8103 1.34344 23.8264 1.32942 23.8437 1.31724C23.993 1.32885 24.1397 1.36297 24.2788 1.41852H24.4517C24.5387 1.45739 24.6191 1.50969 24.69 1.57349V1.57946C24.6662 1.58542 24.6661 1.57948 24.6602 1.59736C24.6602 1.60928 24.6661 1.60929 24.6661 1.60929C24.7509 1.62659 24.8305 1.66327 24.8987 1.71653C24.9166 1.7031 24.9367 1.69312 24.9582 1.68685C24.9665 1.69745 24.9726 1.7095 24.9761 1.7225C24.9534 1.73494 24.9295 1.74496 24.9046 1.75233C24.9053 1.80311 24.8907 1.85292 24.8629 1.89537C24.8783 1.89993 24.8945 1.90195 24.9106 1.90134C24.9111 1.92368 24.9152 1.94587 24.9225 1.96696C24.9696 1.98805 25.0154 2.01185 25.0596 2.03841C25.2921 2.22914 25.5186 1.94902 25.6914 1.90134C25.7455 2.02207 25.8135 2.13613 25.894 2.24111H25.9298C25.934 2.27441 25.9491 2.30541 25.9729 2.32915C25.9966 2.35289 26.0276 2.36799 26.0609 2.37222C26.0572 2.40109 26.0492 2.42931 26.037 2.45575C26.0609 2.46767 26.0788 2.46754 26.0848 2.4735V2.59282C26.0609 2.59282 26.0668 2.58091 26.043 2.60475C26.1153 2.62539 26.181 2.66437 26.2338 2.71796C26.2099 2.73584 26.2099 2.718 26.2278 2.75376C26.2614 2.76754 26.2888 2.79285 26.3052 2.82521C26.3521 2.83993 26.3999 2.8519 26.4483 2.861C26.4452 2.86979 26.4454 2.87936 26.4487 2.88807C26.452 2.89677 26.4581 2.90396 26.4661 2.90859C26.5156 2.92762 26.5681 2.93774 26.6211 2.93842C26.654 2.97953 26.6946 3.01403 26.7404 3.03984C26.6804 3.03522 26.6207 3.02724 26.5616 3.01598V3.02791C26.6004 3.02598 26.6386 3.03731 26.67 3.06007C26.7014 3.08282 26.7242 3.11563 26.7345 3.15305C26.7768 3.15734 26.8187 3.16534 26.8596 3.17691V3.20078C26.9003 3.21409 26.9401 3.22992 26.9788 3.24836C26.949 3.28412 26.9788 3.40336 26.9549 3.43317C26.9519 3.4329 26.949 3.43156 26.9468 3.42938C26.9446 3.4272 26.9433 3.4243 26.943 3.42123C26.949 3.45699 26.9549 3.43915 26.943 3.463C26.7324 3.49968 26.5175 3.50572 26.3052 3.48089C26.2359 3.51624 26.1616 3.54031 26.0848 3.55234C25.9058 3.53061 25.731 3.48241 25.5661 3.4093C25.4052 3.3497 25.2504 3.3378 25.0835 3.28416C24.9654 3.24531 24.8379 3.24531 24.7198 3.28416C24.702 3.31396 24.6721 3.33177 24.6602 3.35561C24.6423 3.36157 24.4039 3.34382 24.4039 3.34382C24.2118 3.40242 24.0261 3.48024 23.8497 3.57621C23.9649 3.5586 24.076 3.52027 24.1775 3.463C24.4398 3.41531 25.0477 3.33182 25.2265 3.56427V3.57024C25.2146 3.57024 25.2026 3.56427 25.1907 3.56427C25.2026 3.58811 25.2265 3.58816 25.2026 3.60604C25.2026 3.612 25.2026 3.62393 25.1967 3.62393L24.982 3.65959C24.8986 3.64767 24.8629 3.60006 24.7616 3.58814C24.7663 3.59358 24.7703 3.5996 24.7735 3.60604C24.7978 3.60736 24.821 3.61601 24.8402 3.63092C24.8593 3.64583 24.8735 3.66623 24.8808 3.68942C24.9602 3.69693 25.0402 3.69493 25.1191 3.68345V3.68942C25.1164 3.6927 25.1145 3.69664 25.1134 3.70077C25.1124 3.70489 25.1123 3.70911 25.1132 3.71328C25.0545 3.74559 24.9927 3.77164 24.9285 3.79084V3.80859C24.9419 3.80574 24.9559 3.80594 24.9692 3.80903C24.9826 3.81212 24.9951 3.81804 25.0059 3.82649L24.9761 3.85632C24.9852 3.89584 25.0036 3.93258 25.0298 3.96357C25.0723 3.98589 25.1161 4.00584 25.1609 4.02323C25.1614 4.02488 25.1614 4.02664 25.161 4.02832C25.1606 4.03 25.1598 4.0316 25.1586 4.03283C25.1573 4.03406 25.1557 4.03489 25.154 4.0353C25.1524 4.03572 25.1506 4.03567 25.149 4.03516H25.1251C25.135 4.04561 25.1431 4.05774 25.149 4.07095C25.2678 4.1154 25.3922 4.14341 25.5186 4.15433C25.5245 4.21394 25.5483 4.21398 25.6019 4.20206C25.6241 4.15733 25.6569 4.11868 25.6974 4.08958C25.7379 4.06048 25.785 4.04181 25.8345 4.03516C25.8464 4.03516 25.8642 4.04112 25.8821 4.04112C25.8794 4.04845 25.8792 4.05648 25.8813 4.06397C25.8835 4.07146 25.8879 4.07808 25.894 4.08289C25.8761 4.10673 25.8583 4.12453 25.8345 4.15433V4.1603C25.8587 4.15808 25.8829 4.16468 25.9026 4.17893C25.9223 4.19317 25.9362 4.21417 25.9417 4.23786V4.26158C25.8424 4.27334 25.7418 4.2693 25.6437 4.24965C25.6397 4.25718 25.6336 4.26347 25.6262 4.26769C25.6189 4.27191 25.6104 4.27392 25.6019 4.27351C25.6187 4.27125 25.6357 4.27336 25.6514 4.27962C25.6671 4.28589 25.6809 4.29614 25.6914 4.30931H25.6795C25.4926 4.29656 25.3048 4.30256 25.1191 4.32721C25.1025 4.32582 25.0868 4.31939 25.074 4.30872C25.0612 4.29806 25.052 4.28362 25.0477 4.26754C25.0383 4.27392 25.0302 4.28203 25.0238 4.29141C25.0242 4.28945 25.0243 4.28742 25.024 4.28544C25.0236 4.28347 25.0227 4.28158 25.0216 4.27991C25.0205 4.27824 25.0191 4.27679 25.0174 4.27569C25.0157 4.27459 25.0139 4.27386 25.0119 4.27351C24.9761 4.27947 24.988 4.28548 24.9761 4.32124C24.8688 4.3272 24.7734 4.38687 24.6721 4.38687C24.6185 4.38687 24.6364 4.36296 24.6126 4.32124H24.5649C24.5608 4.29801 24.563 4.27416 24.5714 4.25212C24.5798 4.23008 24.5941 4.21071 24.6126 4.1961C24.6209 4.19634 24.6292 4.19428 24.6365 4.19013C24.6211 4.19504 24.6049 4.19706 24.5887 4.1961L24.5947 4.19013C24.7318 4.16629 24.8688 4.14238 24.9999 4.1245C24.963 4.11312 24.9251 4.10511 24.8867 4.10064C24.8927 4.09626 24.8969 4.09006 24.8987 4.08289C24.9285 4.07693 24.9642 4.06498 24.994 4.05902C24.9908 4.05259 24.9868 4.04656 24.982 4.04112C24.8513 4.08325 24.7129 4.09551 24.5768 4.07692C24.5403 4.06129 24.5024 4.04928 24.4636 4.04112C24.4695 4.059 24.4755 4.07097 24.4815 4.08885C24.3437 4.11259 24.204 4.12444 24.0641 4.1245C24.0665 4.11715 24.0667 4.10937 24.0646 4.10195C24.0625 4.09453 24.0582 4.08791 24.0524 4.08289C23.9662 4.13386 23.8633 4.14874 23.7661 4.1245C23.6943 4.16054 23.6282 4.20669 23.5695 4.26158C23.5768 4.27723 23.5869 4.29142 23.5994 4.30334C23.5641 4.31349 23.5282 4.32148 23.492 4.32721V4.33914C23.5695 4.35106 23.5517 4.41063 23.5636 4.45831C23.5836 4.45734 23.6036 4.45935 23.6231 4.46428C23.6589 4.46428 23.647 4.45828 23.6649 4.42252C23.6707 4.43573 23.6788 4.44786 23.6887 4.45831C23.6754 4.47091 23.6633 4.48494 23.6529 4.50008C23.6275 4.50587 23.6011 4.50505 23.5761 4.49775C23.5511 4.49045 23.5282 4.47687 23.5099 4.45831C23.2852 4.44152 23.0594 4.44953 22.8364 4.48218C22.9396 4.47323 23.0433 4.47323 23.1464 4.48218C23.1541 4.49934 23.164 4.51543 23.1761 4.52991C23.039 4.54183 22.8542 4.50009 22.7231 4.51797C22.7278 4.52341 22.7318 4.52944 22.735 4.53587C22.7529 4.54779 22.747 4.53575 22.7529 4.55959C22.7205 4.61444 22.6766 4.66165 22.6241 4.69768C22.5716 4.73372 22.5118 4.75778 22.4489 4.76826V4.76229C22.4549 4.75037 22.4668 4.73842 22.4728 4.7265C22.4334 4.71491 22.3996 4.68959 22.3775 4.65505C22.3743 4.67955 22.3763 4.70445 22.3835 4.7281C22.3907 4.75174 22.4029 4.77356 22.4193 4.79212C22.3477 4.91729 22.1748 4.9709 22.139 5.06031C22.1092 5.06031 22.1093 5.06029 22.1033 5.04241C22.103 5.04005 22.1034 5.03769 22.1045 5.03557C22.1056 5.03345 22.1072 5.03164 22.1093 5.03048C22.1357 4.98799 22.1726 4.95312 22.2166 4.9292C22.1987 4.92324 22.1748 4.91129 22.1509 4.90533C22.1478 4.81644 22.1729 4.72887 22.2225 4.65505C22.1808 4.68485 22.151 4.71459 22.1153 4.74439C22.1093 4.79986 22.1093 4.85583 22.1153 4.9113C22.0848 4.95106 22.0606 4.99527 22.0437 5.04241C22.0437 5.07817 22.0318 5.06033 22.0556 5.08417C22.0616 5.08417 22.0795 5.09014 22.0914 5.09014C22.0878 5.16603 22.0798 5.24158 22.0675 5.31656V5.26301C22.0199 5.25109 21.9841 5.25106 21.9364 5.23914V5.25108C21.9601 5.24918 21.9837 5.25308 22.0056 5.26243C22.0274 5.27177 22.0466 5.28619 22.0616 5.30462C22.0556 5.31655 22.0377 5.33448 22.0198 5.35832C21.9581 5.36079 21.8974 5.37499 21.841 5.40008V5.41201C21.8435 5.42046 21.8481 5.42804 21.8544 5.43428C21.8606 5.44052 21.8683 5.4451 21.8768 5.44767C21.8729 5.4528 21.8708 5.45911 21.8708 5.46556C21.7183 5.45478 21.5673 5.50156 21.4477 5.59667C21.1794 5.54899 21.239 5.66831 21.09 5.71599C20.9331 5.72443 20.7838 5.78548 20.666 5.8893C20.5481 5.99312 20.4686 6.13363 20.4404 6.28816C20.4583 6.38948 20.4761 6.4908 20.488 6.58617C20.4759 6.59564 20.4616 6.60182 20.4464 6.60407C20.4703 6.73611 20.4703 6.87132 20.4464 7.00336C20.3799 7.08236 20.3293 7.1734 20.2974 7.27154C20.2649 7.28235 20.2304 7.28585 20.1964 7.28173C20.1624 7.27761 20.1296 7.26594 20.1006 7.24768C20.1543 7.12847 20.0411 7.12854 20.0351 7.02126C20.0393 7.0083 20.0403 6.99454 20.0382 6.98109C20.0361 6.96765 20.031 6.95482 20.0232 6.9437C20.0197 6.94807 20.015 6.95151 20.0098 6.95359C20.0046 6.95568 19.999 6.95636 19.9934 6.95563C20.0172 6.91391 20.0171 6.90205 20.041 6.86628C20.0403 6.86177 20.0384 6.85757 20.0351 6.85435C20.0337 6.86331 20.0295 6.87164 20.0232 6.87822C20.0105 6.87698 19.9983 6.8729 19.9874 6.86628C19.9783 6.81114 19.9743 6.75526 19.9755 6.69938C19.9993 6.6815 20.0291 6.66357 20.0529 6.64568C20.0171 6.63972 20.0351 6.65176 20.0172 6.61003C20.0172 6.61599 20.0053 6.616 20.0053 6.616C20.0113 6.65772 20.0172 6.65167 19.9874 6.67551C19.9874 6.66955 19.9814 6.66955 19.9755 6.66955C20.0247 6.57498 20.055 6.47173 20.0648 6.36557C20.0064 6.29743 19.9582 6.2212 19.9218 6.13915C19.8354 6.17645 19.7415 6.1927 19.6476 6.18673C19.6381 6.15319 19.6241 6.12116 19.6059 6.09142C19.5508 6.0511 19.4878 6.02285 19.4211 6.00848C19.3543 5.9941 19.2853 5.99398 19.2185 6.00804V5.91855C19.2119 5.92482 19.2036 5.92899 19.1947 5.93048C19.1869 5.94772 19.1809 5.96574 19.1768 5.98418C19.1192 5.96523 19.0583 5.9581 18.9979 5.96322C18.9375 5.96834 18.8788 5.98563 18.8252 6.01401C18.8299 6.01944 18.8339 6.02547 18.8371 6.03191H18.8489C18.8673 6.023 18.8853 6.01302 18.9026 6.00207C18.9059 6.01317 18.9066 6.02487 18.9045 6.03627C18.9024 6.04767 18.8977 6.05835 18.8907 6.06756C18.8768 6.06782 18.8633 6.07126 18.851 6.07745C18.8386 6.08364 18.8277 6.09245 18.8192 6.10335C18.821 6.11052 18.8252 6.11687 18.8312 6.12125C18.8559 6.14002 18.8779 6.162 18.8966 6.18673C18.8908 6.19994 18.8827 6.21208 18.8728 6.22253H18.8608C18.8586 6.21717 18.8543 6.21289 18.8489 6.2106C18.8114 6.18505 18.7792 6.15275 18.7536 6.11528C18.7457 6.13192 18.734 6.14655 18.7196 6.15792C18.7051 6.1693 18.6882 6.17717 18.6702 6.18091C18.6628 6.1661 18.6587 6.14976 18.6583 6.13318C18.6225 6.1451 18.5926 6.16303 18.5628 6.17495C18.539 6.15707 18.5152 6.14509 18.4854 6.12125C18.4896 6.11997 18.4935 6.11768 18.4966 6.11456C18.4997 6.11144 18.502 6.10757 18.5033 6.10335C18.5089 6.10043 18.515 6.09841 18.5212 6.09739C18.4932 6.069 18.469 6.03697 18.4496 6.00207C18.4307 6.00749 18.4128 6.01554 18.3961 6.02594C18.4002 6.03095 18.4022 6.0372 18.4019 6.04369H18.4496V6.07352H18.4258C18.345 6.03661 18.2613 6.00675 18.1755 5.98418C18.1056 6.00385 18.0334 6.01391 17.9608 6.01401C17.9544 6.00753 17.9462 6.00333 17.9371 6.00207C17.9433 5.99954 17.9487 5.9955 17.9528 5.99029C17.957 5.98507 17.9597 5.97883 17.9608 5.97224V5.96628C17.9368 5.97295 17.9158 5.98772 17.9013 6.00804C17.9132 6.0438 17.9251 6.08544 17.8715 6.07352C17.7769 6.13825 17.6642 6.1717 17.5496 6.16898L17.5675 6.20463C17.5616 6.21059 17.5496 6.22851 17.5377 6.24043C17.5258 6.23447 17.5378 6.2464 17.502 6.25833C17.5078 6.24313 17.5097 6.22674 17.5079 6.2106C17.5019 6.22848 17.4901 6.24043 17.4901 6.24639C17.4757 6.26945 17.4553 6.28824 17.4312 6.30082C17.4071 6.31339 17.3802 6.31936 17.353 6.31799C17.3355 6.39373 17.2985 6.4635 17.2456 6.52054C17.2328 6.59143 17.2248 6.66319 17.2218 6.73518C17.1859 6.79752 17.1318 6.84742 17.0668 6.87822C17.0191 6.99146 16.9714 7.11057 16.9238 7.22978C16.876 7.29279 16.8424 7.36529 16.825 7.44238C16.8075 7.51946 16.8066 7.59937 16.8225 7.6768C16.8042 7.69783 16.7901 7.72216 16.7807 7.74839C16.7858 7.94021 16.816 8.13053 16.8702 8.31459C16.893 8.32073 16.9136 8.33315 16.9297 8.35038C16.4589 8.3623 15.6782 8.39215 15.6782 8.39215C15.6593 8.38488 15.6427 8.37247 15.6304 8.35635C15.5361 8.20957 15.4942 8.03522 15.5113 7.8616C15.5352 7.85125 15.5572 7.83728 15.5767 7.81998C15.5589 7.7723 15.5589 7.78414 15.5887 7.73646C15.6802 7.472 15.6697 7.18297 15.559 6.92595C15.5629 6.89243 15.5774 6.86099 15.6006 6.83645C15.5549 6.79091 15.5239 6.73281 15.5113 6.66955C15.5636 6.61733 15.5934 6.54688 15.5946 6.47296C15.5834 6.47781 15.5712 6.47986 15.559 6.47893C15.5615 6.45048 15.5673 6.42236 15.5767 6.3954C15.565 6.39314 15.5546 6.38679 15.547 6.3775C15.5454 6.32553 15.5576 6.27406 15.5827 6.2285L15.5708 6.21656C15.5529 6.22252 15.559 6.23444 15.553 6.2106C15.5233 6.14516 15.517 6.07161 15.5351 6.00207C15.5184 6.01285 15.5041 6.02697 15.4934 6.04369C15.4918 6.03855 15.4886 6.03411 15.4843 6.03089C15.48 6.02767 15.4749 6.02597 15.4695 6.02594C15.4876 5.98494 15.5192 5.95122 15.559 5.93048C15.5351 5.76955 15.6841 5.58476 15.6483 5.4596C15.6411 5.46481 15.633 5.46884 15.6245 5.47153C15.6131 5.45987 15.6049 5.44562 15.6006 5.42991C15.4479 5.66892 15.3635 5.94499 15.3563 6.2285C15.3503 6.32774 15.3503 6.42726 15.3563 6.52651C15.3016 6.68911 15.2637 6.85692 15.2431 7.02722C15.2584 7.01485 15.2723 7.00082 15.2847 6.98546C15.2896 6.9988 15.2916 7.01305 15.2907 7.02722C15.3039 7.08049 15.3014 7.13646 15.2834 7.18831C15.2654 7.24016 15.2328 7.28565 15.1894 7.31927C15.1844 7.31514 15.178 7.31301 15.1715 7.3133V7.30734C15.1821 7.15813 15.1555 7.00863 15.0941 6.87225C15.1474 6.81856 15.1837 6.75043 15.1985 6.67624C15.2134 6.60206 15.206 6.52512 15.1774 6.45506C15.1536 6.47294 15.1655 6.47296 15.1476 6.47296C15.1476 6.37759 15.1178 6.32982 15.1237 6.2285H15.1297C15.1572 6.23446 15.1857 6.23446 15.2132 6.2285C15.2371 6.18081 15.2668 6.13314 15.2907 6.09142C15.3051 6.01408 15.301 5.93449 15.2787 5.85903C15.2827 5.79561 15.2968 5.7332 15.3205 5.67423C15.3682 5.4835 15.4934 5.28088 15.5292 5.10804C15.5331 5.03603 15.5271 4.96375 15.5113 4.8934C15.4874 4.8934 15.4695 4.88744 15.4516 4.88744C15.4516 4.87551 15.5768 4.54777 15.5946 4.51201C15.6132 4.47835 15.6375 4.44803 15.6662 4.42252C15.6841 4.3808 15.7079 4.34506 15.7257 4.30334C14.6094 5.35242 13.6606 6.56656 12.9125 7.90336C13.8889 5.56212 15.5365 3.56219 17.6475 2.1557C19.7586 0.749198 22.2387 -0.000881096 24.7754 -0.000243735C27.3121 0.000393626 29.7919 0.751776 31.9023 2.15933C34.0126 3.56689 35.6592 5.56759 36.6344 7.90933C36.3582 7.41021 36.0517 6.92856 35.7165 6.46699C35.7642 6.56236 35.8119 6.64578 35.8655 6.74114ZM36.0085 7.59939C36.0093 7.59652 36.0108 7.59391 36.0129 7.59182C36.015 7.58972 36.0176 7.5882 36.0205 7.58745C36.0061 7.57189 35.9902 7.55786 35.9729 7.54569C35.9626 7.54724 35.952 7.54513 35.9431 7.53972C35.9635 7.56105 35.9854 7.58102 36.0085 7.59939ZM32.5635 7.29541C32.5635 7.30733 32.5695 7.31929 32.5695 7.33717C32.5739 7.32373 32.5759 7.30956 32.5754 7.29541H32.5635ZM33.2609 4.58346H33.243L33.2371 4.58942C33.2377 4.59394 33.2398 4.59814 33.243 4.60135C33.2446 4.59789 33.2472 4.59502 33.2503 4.59291C33.2535 4.59081 33.2571 4.58953 33.2609 4.58942V4.58346ZM33.3205 4.54766L33.3085 4.55959C33.3176 4.55833 33.326 4.55413 33.3324 4.54766H33.3205ZM33.8629 4.50604C33.8507 4.49668 33.8364 4.49052 33.8212 4.48814C33.8361 4.49663 33.8501 4.50665 33.8629 4.51797V4.50604ZM26.7046 3.17691C26.713 3.17781 26.7215 3.17569 26.7285 3.17095V3.15902C26.7234 3.16019 26.7181 3.16019 26.7129 3.15916C26.7078 3.15813 26.7029 3.1561 26.6987 3.15305C26.6987 3.17689 26.6927 3.15903 26.7046 3.17691ZM26.4424 3.03984C26.3709 3.02792 26.3053 3.01597 26.2338 3.01001C26.2218 3.01001 26.2039 3.01598 26.186 3.01598C26.1801 3.06962 26.1801 3.03376 26.1622 3.06356C26.2575 3.0576 26.353 3.0458 26.4424 3.03984ZM25.7748 4.18416H25.7629C25.7622 4.18868 25.7601 4.19288 25.7569 4.1961C25.7748 4.1961 25.7927 4.20205 25.7748 4.18416ZM25.7629 4.23189V4.22593C25.7602 4.21818 25.7582 4.21017 25.7569 4.20206H25.7211C25.7062 4.21055 25.6924 4.22057 25.6795 4.23189H25.7629ZM25.0238 4.17223C25.0715 4.16627 25.1132 4.16029 25.149 4.15433C25.1132 4.14241 25.0596 4.14238 25.0119 4.1245C25.0088 4.13671 25.0048 4.1487 24.9999 4.1603C25.0047 4.1596 25.0095 4.16035 25.0138 4.16248C25.018 4.16462 25.0215 4.16804 25.0238 4.17223ZM23.3668 4.43445C23.3621 4.44144 23.36 4.44991 23.3609 4.45831C23.3728 4.44639 23.3788 4.45829 23.3668 4.43445ZM23.0927 4.51797C23.1057 4.51446 23.1179 4.50837 23.1285 4.50008H23.1046C23.1023 4.50544 23.0981 4.50972 23.0927 4.51201V4.51797ZM15.5708 5.29866C15.5946 5.28078 15.5767 5.29282 15.5827 5.27494C15.5764 5.28151 15.5723 5.2897 15.5708 5.29866ZM15.6125 5.24511H15.6245C15.6533 5.21965 15.6741 5.18647 15.6847 5.14951C15.6953 5.11254 15.6951 5.07328 15.6841 5.03644C15.6603 5.11989 15.6304 5.16763 15.6125 5.24511ZM16.7807 7.6947C16.7885 7.69199 16.7965 7.68999 16.8046 7.68873V7.68276C16.8009 7.66682 16.7926 7.65242 16.7807 7.64115V7.6947ZM18.8489 5.97821C18.8304 5.95887 18.8106 5.94088 18.7894 5.92452C18.767 5.9398 18.7486 5.9603 18.7357 5.98418C18.7734 5.98717 18.8112 5.98717 18.8489 5.98418V5.97821ZM23.3133 0.894087C23.3078 0.885775 23.3018 0.877789 23.2954 0.870223C23.2905 0.881804 23.2865 0.893798 23.2835 0.906019C23.298 0.904848 23.3121 0.900785 23.3251 0.894087H23.3133ZM24.8271 0.82846C24.839 0.840381 24.8271 0.834432 24.8509 0.840392C24.8424 0.837658 24.8344 0.833626 24.8271 0.82846ZM24.9106 1.1921C24.9096 1.20823 24.9117 1.22444 24.9166 1.23983H24.8509C24.8563 1.24212 24.8606 1.2464 24.8629 1.25176C24.9239 1.25864 24.9839 1.27254 25.0417 1.29338C25.0416 1.28877 25.0404 1.28426 25.0384 1.28014C25.0363 1.27601 25.0334 1.27235 25.0298 1.26951C25.0166 1.24881 24.9991 1.23123 24.9786 1.21786C24.958 1.20449 24.9349 1.19571 24.9106 1.1921ZM25.2086 1.10275C25.1614 1.08901 25.1155 1.071 25.0715 1.04906C25.0616 1.04906 25.0519 1.05179 25.0435 1.05706C25.035 1.06233 25.0282 1.06995 25.0238 1.07889C25.0298 1.09628 25.0298 1.11505 25.0238 1.13244C25.0919 1.12652 25.1605 1.13259 25.2265 1.15034C25.2161 1.14038 25.2039 1.13229 25.1907 1.12647C25.2205 1.11455 25.2146 1.1266 25.2086 1.10275ZM27.843 1.52591C27.849 1.54379 27.843 1.53189 27.8609 1.54381C27.8566 1.53643 27.8504 1.53026 27.843 1.52591ZM34.8046 6.07949L34.7868 6.06159C34.7915 6.07408 34.7974 6.0861 34.8046 6.09739V6.07949ZM25.5781 1.74636C25.5542 1.7404 25.5603 1.74634 25.5484 1.7225C25.5722 1.73442 25.5662 1.73444 25.5781 1.7404V1.74636ZM14.1642 9.41133C14.1723 9.41893 14.1786 9.42825 14.1827 9.43854C14.1868 9.44883 14.1887 9.45977 14.1881 9.47084L14.2179 15.4134C14.2176 15.4338 14.2093 15.4533 14.1948 15.4678C14.1803 15.4822 14.1608 15.4905 14.1404 15.4908L12.8649 15.5504V15.5564C12.8549 15.5562 12.8449 15.5539 12.8357 15.5498C12.8265 15.5458 12.8181 15.5399 12.8112 15.5325C12.7948 15.5192 12.784 15.4999 12.7814 15.4788L12.7456 9.53647C12.7459 9.51602 12.7543 9.49651 12.7687 9.48205C12.7832 9.46758 12.8027 9.45937 12.8232 9.45906L14.1105 9.39343C14.1298 9.39387 14.1485 9.40012 14.1642 9.41133ZM25.7927 20.0563H25.8046C25.7987 20.0563 25.7927 20.0563 25.7927 20.0742V20.0563ZM25.7629 20.0801C25.7515 20.0757 25.7393 20.0737 25.7271 20.0742C25.7195 20.0701 25.7133 20.0638 25.7092 20.0563C25.7157 20.0566 25.7221 20.0544 25.7271 20.0503C25.7401 20.0538 25.7523 20.0599 25.7629 20.0682V20.0801ZM22.0437 24.306C22.0167 24.3026 21.9905 24.2945 21.9663 24.2822C21.9962 24.2814 22.0261 24.2834 22.0556 24.2881C22.056 24.292 22.055 24.2959 22.0528 24.2992C22.0507 24.3025 22.0475 24.3049 22.0437 24.306ZM20.4225 22.7682C20.4225 22.7623 20.4225 22.7563 20.4285 22.7563C20.4292 22.7592 20.4307 22.7618 20.4328 22.7639C20.4349 22.766 20.4375 22.7675 20.4404 22.7682H20.4225ZM20.4999 22.357C20.494 22.357 20.494 22.357 20.494 22.363C20.4761 22.3511 20.4762 22.3689 20.4762 22.3451H20.4999V22.357ZM20.3569 22.655C20.3569 22.661 20.3688 22.661 20.3748 22.6729H20.3569V22.655ZM20.3509 22.5239H20.3212C20.3178 22.5222 20.3149 22.5196 20.3128 22.5165C20.3107 22.5134 20.3095 22.5098 20.3093 22.506C20.3167 22.5047 20.3242 22.5051 20.3314 22.5072C20.3386 22.5092 20.3453 22.513 20.3509 22.5179V22.5239ZM20.2317 21.6894C20.2307 21.6831 20.2287 21.6772 20.2258 21.6716V21.6597C20.2317 21.6657 20.2317 21.6716 20.2377 21.6776C20.2345 21.6808 20.2324 21.6849 20.2317 21.6894ZM15.1 6.94966C15.1239 6.96158 15.1178 6.95566 15.1237 6.99143H15.1179C15.1069 6.98437 15.0985 6.97387 15.0941 6.9616C15.0961 6.96043 15.0978 6.95877 15.0989 6.95665C15.0999 6.95452 15.1003 6.95202 15.1 6.94966ZM15.4218 5.97224C15.4337 5.93648 15.4337 5.90673 15.4456 5.87097C15.4503 5.87035 15.4552 5.87117 15.4594 5.87329C15.4637 5.87542 15.4672 5.87876 15.4695 5.8829C15.4576 5.91866 15.4456 5.95438 15.4337 5.98418C15.4329 5.98131 15.4316 5.9787 15.4295 5.97661C15.4274 5.97451 15.4246 5.97299 15.4218 5.97224ZM17.9491 6.02594C17.9463 6.03141 17.942 6.03587 17.9367 6.03904C17.9314 6.0422 17.9254 6.0438 17.9192 6.04369C17.9266 6.03934 17.9328 6.03332 17.9371 6.02594H17.9491ZM19.9457 9.23249C19.9515 9.21837 19.9614 9.20634 19.9742 9.19786C19.9869 9.18937 20.002 9.18476 20.0172 9.18476L21.1735 9.14911C21.1867 9.1481 21.2 9.15091 21.2116 9.15726C21.2233 9.16361 21.2327 9.1731 21.239 9.18476C21.2525 9.20818 21.2568 9.23591 21.2509 9.26232L18.6702 15.2821C18.6643 15.2945 18.655 15.305 18.6434 15.3124C18.6319 15.3197 18.6183 15.3238 18.6046 15.3239L17.5973 15.3537H17.5914C17.5768 15.3536 17.5627 15.3489 17.5509 15.3403C17.5392 15.3318 17.5303 15.3198 17.5258 15.306L15.0105 9.44116C15.005 9.42844 15.0032 9.41442 15.0053 9.40071C15.0074 9.38699 15.0134 9.37406 15.0225 9.3636C15.027 9.35312 15.0345 9.34418 15.044 9.33784C15.0535 9.3315 15.0647 9.32799 15.0762 9.3278L16.5483 9.28619C16.5639 9.28456 16.5797 9.28839 16.5927 9.2971C16.6058 9.30581 16.6153 9.31873 16.6198 9.33377L18.2589 13.1663L19.9457 9.23249ZM28.9517 16.4861C28.9517 16.4861 28.8504 17.0762 28.8265 17.1656C28.8255 17.2135 28.8215 17.2613 28.8146 17.3087C28.7402 17.521 28.5862 17.6962 28.3853 17.7975L28.2245 17.9226C28.1814 17.9334 28.1375 17.9414 28.0933 17.9465C27.9776 18.0598 27.8563 18.1671 27.7298 18.2682C27.6522 18.3077 27.5702 18.3378 27.4855 18.3577C27.4635 18.4569 27.4208 18.5503 27.3602 18.6318C27.3244 18.7153 27.3424 18.7987 27.3126 18.8941C27.2781 18.9234 27.248 18.9576 27.2231 18.9955C27.1623 19.074 27.1215 19.166 27.1039 19.2637C27.0439 19.2891 26.9912 19.3291 26.9506 19.3801C26.91 19.4311 26.8828 19.4915 26.8716 19.5557C26.8597 19.5721 26.8445 19.5858 26.827 19.596C26.8096 19.6063 26.7902 19.6128 26.7701 19.6152C26.7051 19.6845 26.6309 19.7447 26.5497 19.7941C26.4924 19.8575 26.446 19.93 26.4126 20.0087C26.3292 20.0504 26.192 20.0027 26.198 20.1159C26.1846 20.1241 26.1726 20.1341 26.1622 20.1458C26.001 20.0793 25.8297 20.041 25.6556 20.0326V20.0563C25.6795 20.0742 25.6795 20.0682 25.6556 20.0921C25.5852 20.1042 25.5192 20.1351 25.4649 20.1816V20.1875C25.474 20.1924 25.4844 20.1943 25.4947 20.1934C25.4896 20.2115 25.4837 20.2295 25.4768 20.247C25.453 20.2232 25.4232 20.2054 25.3994 20.1816C25.1532 20.2051 24.9211 20.3076 24.7377 20.4736C24.7109 20.5597 24.689 20.6472 24.6721 20.7358C24.684 20.7358 24.69 20.7418 24.7079 20.7418C24.6348 20.8838 24.5084 20.991 24.3563 21.0398C24.2713 21.1429 24.1796 21.2405 24.082 21.3319C23.9926 21.3736 23.8973 21.4093 23.8019 21.451C23.7696 21.5031 23.7338 21.5529 23.6947 21.6C23.6481 21.6224 23.6004 21.6424 23.5516 21.6597C23.486 21.7375 23.3955 21.7901 23.2954 21.8087C23.2539 21.804 23.2145 21.7874 23.182 21.761C23.1417 21.7459 23.0973 21.7459 23.0569 21.761C23.0039 21.7258 22.9558 21.6837 22.9139 21.6358C22.8781 21.6239 22.8304 21.6179 22.7827 21.606C22.7718 21.5774 22.7556 21.5512 22.735 21.5286C22.7266 21.5277 22.7183 21.5297 22.7113 21.5344C22.7046 21.5471 22.6941 21.5575 22.6815 21.5642C22.7701 21.6307 22.8449 21.7138 22.9019 21.8087C22.8781 21.8206 22.8603 21.8444 22.8364 21.8563C22.8364 21.8696 22.8389 21.8828 22.844 21.8951C22.8491 21.9075 22.8564 21.9188 22.8658 21.9282C22.8753 21.9376 22.8865 21.9451 22.8989 21.9501C22.9112 21.9552 22.9244 21.9578 22.9377 21.9577V22.059C22.896 22.0948 22.7887 22.2259 22.7589 22.2438C22.5348 22.2864 22.3038 22.2741 22.0854 22.208C22.0899 22.2225 22.0959 22.2365 22.1033 22.2498H22.0914C22.0807 22.2452 22.0707 22.2391 22.0616 22.2319C22.0685 22.2629 22.0671 22.2951 22.0576 22.3254C22.0482 22.3557 22.0311 22.3831 22.0079 22.4047C22.0146 22.4174 22.025 22.4277 22.0377 22.4344C22.0437 22.4285 22.0556 22.4286 22.0616 22.4226C22.0534 22.451 22.0434 22.4788 22.0317 22.506H21.8648C21.7933 22.4881 21.6682 22.3571 21.6146 22.4226C21.625 22.485 21.6389 22.5465 21.6563 22.6073C21.6708 22.61 21.6846 22.6157 21.6969 22.6239C21.7092 22.6321 21.7197 22.6427 21.7278 22.655C21.7456 22.655 21.7636 22.661 21.7755 22.661C21.7695 22.6491 21.7516 22.6431 21.7457 22.6312C21.7695 22.6252 21.7934 22.6252 21.8173 22.6192C21.8217 22.6282 21.8277 22.6363 21.835 22.6431C21.8534 22.6691 21.8618 22.7007 21.8589 22.7324C21.8499 22.7369 21.8418 22.743 21.835 22.7503C21.815 22.751 21.795 22.749 21.7755 22.7444C21.7586 22.7113 21.734 22.6827 21.7039 22.661C21.6908 22.6736 21.6743 22.6819 21.6563 22.6848C21.6601 22.685 21.6638 22.6861 21.6669 22.6882C21.6701 22.6903 21.6727 22.6933 21.6742 22.6968C21.7056 22.7111 21.7339 22.7313 21.7576 22.7563C21.7327 22.7542 21.7076 22.7592 21.6854 22.7708C21.6633 22.7825 21.6449 22.8002 21.6325 22.8219C21.649 22.8616 21.6571 22.9041 21.6563 22.9471C21.6457 22.9476 21.6354 22.9513 21.6269 22.9577C21.6184 22.9641 21.612 22.9728 21.6086 22.9829C21.6265 22.9948 21.6146 22.9829 21.6265 23.0067H21.6026C21.5698 22.9938 21.5339 22.9902 21.4992 22.9965C21.4644 23.0029 21.4321 23.0187 21.4059 23.0424C21.3642 23.2152 21.5371 23.2392 21.6504 23.3107C21.6585 23.3483 21.6564 23.3874 21.6444 23.4239C21.5873 23.4584 21.5274 23.4883 21.4656 23.5133C21.472 23.5319 21.4742 23.5516 21.4721 23.5712C21.47 23.5907 21.4638 23.6096 21.4536 23.6265C21.4179 23.6324 21.3881 23.6384 21.3583 23.6444C21.3536 23.6498 21.3496 23.6558 21.3464 23.6623C21.3709 23.7596 21.4276 23.8458 21.5073 23.9067V23.9127C21.4656 23.8948 21.4297 23.8829 21.3999 23.8709C21.3953 23.871 21.3908 23.8721 21.3867 23.8741C21.3826 23.8762 21.379 23.8792 21.3762 23.8829C21.3807 23.8835 21.3848 23.8856 21.388 23.8888C21.4354 23.9241 21.4852 23.9559 21.537 23.9841C21.5273 23.9925 21.5193 24.0027 21.5133 24.014C21.6389 24.107 21.7749 24.1849 21.9185 24.2464V24.2702C21.9185 24.2762 21.9185 24.2822 21.9126 24.2822H21.9066C21.8745 24.2811 21.8426 24.2771 21.8113 24.2702V24.2941C21.7994 24.2881 21.7874 24.2881 21.7755 24.2822C21.7701 24.2799 21.7659 24.2756 21.7636 24.2702V24.2762C21.719 24.2707 21.6751 24.2607 21.6325 24.2464C21.6468 24.2637 21.6627 24.2797 21.68 24.2941V24.306C21.54 24.2735 21.4082 24.2126 21.2927 24.1272C21.3046 24.1093 21.2986 24.1272 21.2986 24.1033C21.1716 24.0682 21.055 24.0029 20.9589 23.9127V23.8888C20.9321 23.8835 20.9068 23.8728 20.8842 23.8574C20.8617 23.842 20.8425 23.8223 20.8278 23.7993C20.8618 23.8188 20.8977 23.8348 20.935 23.8471V23.8411C20.8992 23.8113 20.8516 23.7756 20.8158 23.7398C20.8187 23.7502 20.8228 23.76 20.8278 23.7695C20.7864 23.7422 20.7501 23.708 20.7205 23.6682L20.7325 23.6563L20.8039 23.6742C20.8036 23.6687 20.8046 23.6632 20.8067 23.658C20.8087 23.6529 20.8118 23.6482 20.8158 23.6444C20.7969 23.6404 20.7801 23.63 20.7682 23.6147C20.7418 23.6282 20.7137 23.6381 20.6847 23.6444C20.6885 23.624 20.6872 23.6031 20.6809 23.5834C20.6747 23.5637 20.6637 23.5457 20.6489 23.5312C20.6512 23.5258 20.6555 23.5215 20.6609 23.5192H20.6847C20.6881 23.5137 20.6898 23.5072 20.6895 23.5007C20.6892 23.4943 20.6869 23.488 20.683 23.4828C20.6791 23.4777 20.6737 23.4738 20.6676 23.4718C20.6614 23.4697 20.6547 23.4696 20.6485 23.4714C20.6422 23.4731 20.6368 23.4768 20.6326 23.4818C20.6285 23.4868 20.6259 23.493 20.6254 23.4994C20.6248 23.5059 20.6261 23.5124 20.6293 23.5181C20.6324 23.5237 20.6371 23.5283 20.643 23.5312C20.628 23.5326 20.6133 23.5283 20.6013 23.5192C20.5954 23.4954 20.5894 23.4597 20.5834 23.4358V23.4299C20.6008 23.4351 20.6189 23.4372 20.637 23.4358C20.6037 23.4256 20.5718 23.4115 20.5417 23.3941C20.4993 23.3185 20.4654 23.2386 20.4404 23.1557C20.4532 23.1492 20.4652 23.1412 20.4762 23.1319C20.4718 23.1245 20.4657 23.1183 20.4583 23.114V23.102C20.4707 23.1019 20.4831 23.1045 20.4944 23.1096C20.5057 23.1148 20.5157 23.1224 20.5238 23.1319C20.5373 23.1097 20.5473 23.0855 20.5536 23.0603C20.5417 23.0484 20.5417 23.0543 20.5238 23.0364C20.536 23.0349 20.5485 23.037 20.5596 23.0424C20.5185 23.014 20.4746 22.9901 20.4285 22.9709C20.4214 22.9819 20.4109 22.9903 20.3986 22.9948C20.3829 22.9905 20.3685 22.9823 20.3569 22.9709V22.9411C20.3712 22.9255 20.3873 22.9115 20.4046 22.8993C20.3991 22.8823 20.391 22.8664 20.3807 22.8518V22.8458H20.4404V22.7503C20.4225 22.7265 20.3986 22.7087 20.3807 22.6848C20.3864 22.6408 20.4006 22.5983 20.4225 22.5597C20.464 22.5734 20.4997 22.6006 20.5238 22.6371C20.525 22.6915 20.533 22.7456 20.5476 22.7981H20.5596C20.5506 22.683 20.5506 22.5674 20.5596 22.4523C20.5472 22.4451 20.5352 22.4371 20.5238 22.4285C20.5655 22.4106 20.5536 22.3331 20.5178 22.3033C20.5234 22.2917 20.5315 22.2816 20.5417 22.2736C20.525 22.2629 20.5107 22.2486 20.4999 22.2319C20.4944 22.2411 20.4903 22.2512 20.488 22.2617C20.5118 22.2677 20.494 22.2616 20.4999 22.2973H20.494C20.4793 22.2835 20.4605 22.2753 20.4404 22.2736C20.4404 22.2768 20.4391 22.2797 20.4369 22.2819C20.4347 22.2842 20.4316 22.2854 20.4285 22.2854C20.4671 22.352 20.4798 22.4306 20.4643 22.506C20.4558 22.5087 20.4477 22.5128 20.4404 22.5179C20.4045 22.5088 20.3715 22.4902 20.3449 22.4643C20.3688 22.3808 20.333 22.3034 20.3569 22.2438C20.3664 22.2537 20.3791 22.26 20.3927 22.2617V22.2319C20.3572 22.1786 20.3365 22.117 20.3323 22.0532C20.3281 21.9894 20.3406 21.9256 20.3688 21.8682C20.304 21.7493 20.2597 21.6204 20.2377 21.4868V21.4749C20.2735 21.4868 20.2855 21.4928 20.3093 21.4988V21.4033C20.3093 21.4093 20.3212 21.4093 20.3332 21.4093C20.3554 21.2419 20.4036 21.0791 20.4762 20.9266C20.4735 20.8884 20.4612 20.8514 20.4404 20.8192C20.4611 20.6383 20.453 20.4553 20.4165 20.2769C20.4334 20.2794 20.4506 20.2751 20.4643 20.2649C20.4655 20.1758 20.4513 20.0871 20.4225 20.0027C20.4649 19.9432 20.4896 19.8729 20.494 19.8C20.535 19.6994 20.5592 19.5926 20.5655 19.4841C20.5645 19.4579 20.5605 19.432 20.5536 19.4067C20.5681 19.3805 20.5862 19.3563 20.6073 19.3351C20.5978 19.2719 20.5919 19.2083 20.5894 19.1445C20.5894 19.0849 20.6013 19.0193 20.6073 18.9597H20.5775C20.5775 18.9239 20.5834 18.8881 20.5834 18.8523C20.5912 18.8581 20.6005 18.8613 20.6102 18.8613C20.6199 18.8613 20.6293 18.8581 20.637 18.8523C20.6447 18.7455 20.6627 18.6399 20.6907 18.5365C20.6847 18.5067 20.6728 18.4768 20.6668 18.4411C20.6609 18.4053 20.6847 18.3397 20.6847 18.2921C20.6909 18.1796 20.6788 18.0669 20.6489 17.9583C20.65 17.9242 20.654 17.8903 20.6609 17.857C20.5893 17.7974 20.5239 17.7258 20.4523 17.6602C20.2422 17.3968 19.9906 17.1694 19.7073 16.9868C19.5988 16.849 19.5068 16.699 19.4332 16.5398C19.4332 16.5398 23.4861 16.4742 28.9517 16.4861ZM21.0663 23.8351V23.8411C21.0663 23.8471 21.0722 23.8471 21.0722 23.853C21.08 23.8503 21.0878 23.8483 21.0959 23.8471C21.0872 23.8406 21.0771 23.8365 21.0663 23.8351ZM21.3225 24.1272C21.3285 24.1272 21.3285 24.1272 21.3285 24.1212H21.3165L21.3225 24.1272ZM21.1974 23.8948C21.189 23.8957 21.1805 23.8936 21.1735 23.8888C21.1616 23.9008 21.1437 23.9066 21.1317 23.9185C21.1735 23.9185 21.1914 23.9365 21.2093 23.8948H21.1974ZM21.2807 24.0438H21.2986C21.3088 24.0313 21.3169 24.0171 21.3225 24.002C21.3249 24.0017 21.3272 24.0021 21.3294 24.0032C21.3315 24.0043 21.3333 24.0059 21.3344 24.008C21.3476 24.0401 21.3704 24.0672 21.3999 24.0854L21.3643 24.0319V24.0259C21.3822 24.0199 21.4059 24.0199 21.4298 24.014V24.008C21.388 24.0096 21.3467 23.9993 21.3106 23.9782C21.2987 23.9305 21.3105 23.9127 21.2569 23.8948C21.2718 23.9431 21.2798 23.9933 21.2807 24.0438ZM21.3106 23.8948C21.3129 23.9002 21.3172 23.9044 21.3225 23.9067C21.3269 23.9127 21.3332 23.9168 21.3404 23.9185C21.3507 23.9201 21.3613 23.9181 21.3702 23.9127C21.3703 23.9062 21.3682 23.8999 21.3643 23.8948C21.352 23.8957 21.3397 23.8937 21.3285 23.8888C21.3261 23.8911 21.3233 23.8928 21.3202 23.8938C21.3171 23.8948 21.3138 23.8952 21.3106 23.8948ZM22.0616 22.2199C22.0628 22.2074 22.0592 22.1948 22.0514 22.1849C22.0436 22.1749 22.0323 22.1682 22.0198 22.1662C22.0192 22.1794 22.023 22.1924 22.0306 22.2032C22.0381 22.214 22.049 22.222 22.0616 22.2259V22.2199ZM24.1357 21.1769C24.1017 21.1779 24.0678 21.1819 24.0345 21.1888C23.9905 21.2686 23.9213 21.3315 23.8377 21.3677C23.8382 21.3722 23.8403 21.3765 23.8437 21.3796C23.8559 21.3826 23.8679 21.3864 23.8795 21.3914C23.9325 21.378 23.9828 21.3559 24.0285 21.3259V21.2901C24.0684 21.2821 24.1054 21.2635 24.1357 21.2364V21.1769ZM24.6424 20.8013C24.6424 20.7894 24.6483 20.7894 24.6602 20.7894C24.6591 20.7856 24.6567 20.7824 24.6535 20.7802C24.6502 20.778 24.6463 20.7772 24.6424 20.7776V20.8013ZM24.6661 20.7418C24.6634 20.7495 24.6614 20.7576 24.6602 20.7657C24.6629 20.7624 24.6648 20.7584 24.6658 20.7543C24.6669 20.7502 24.667 20.746 24.6661 20.7418ZM25.9596 20.0326C25.9603 20.0373 25.9596 20.042 25.9574 20.0462C25.9553 20.0505 25.9519 20.054 25.9477 20.0563C25.9638 20.0531 25.9785 20.0448 25.9894 20.0326H25.9596ZM21.7815 24.2881C21.7576 24.2822 21.7576 24.2822 21.7636 24.2762C21.7668 24.2794 21.771 24.2815 21.7755 24.2822L21.7815 24.2881ZM27.1457 4.27351V4.29737L27.1099 4.31527H27.092C27.0967 4.30828 27.0989 4.29981 27.098 4.29141C27.1087 4.2868 27.1187 4.28077 27.1278 4.27351H27.1457ZM26.6987 4.26158C26.6933 4.26387 26.689 4.26815 26.6867 4.27351C26.6796 4.26222 26.6736 4.25035 26.6689 4.23786C26.6772 4.24756 26.6874 4.25552 26.6987 4.26158ZM26.6867 4.29737H26.6569C26.6629 4.28545 26.6629 4.27948 26.6689 4.27948C26.68 4.28316 26.6902 4.28928 26.6987 4.29737H26.6867ZM26.7106 4.30334C26.7083 4.3087 26.704 4.31298 26.6987 4.31527V4.30334H26.7106ZM22.0377 5.41201C22.0418 5.41957 22.0481 5.4258 22.0556 5.42991H22.0317C22.0359 5.4249 22.038 5.41851 22.0377 5.41201ZM23.2238 4.52991H23.2178C23.2178 4.51799 23.2119 4.51797 23.1999 4.51201C23.2238 4.51797 23.2178 4.51203 23.2238 4.52991ZM23.5039 4.49411C23.5121 4.49604 23.5195 4.50061 23.5249 4.50706C23.5302 4.51351 23.5333 4.52152 23.5337 4.52991C23.5093 4.53179 23.4848 4.52768 23.4623 4.51797V4.51201C23.4802 4.50605 23.486 4.50007 23.5039 4.49411ZM23.5815 4.55959C23.5838 4.55423 23.588 4.54995 23.5934 4.54766C23.6232 4.54766 23.6231 4.54767 23.6291 4.55959C23.6294 4.56195 23.629 4.56445 23.6279 4.56658C23.6268 4.5687 23.6252 4.57036 23.6231 4.57152C23.6052 4.56556 23.5994 4.56555 23.5815 4.55959ZM24.0285 4.11257C24.037 4.11531 24.0451 4.11934 24.0524 4.1245C24.0522 4.1283 24.051 4.13211 24.0489 4.13527C24.0468 4.13843 24.0439 4.14084 24.0404 4.1424C24.0361 4.13887 24.0326 4.13438 24.0305 4.12916C24.0284 4.12394 24.0278 4.11814 24.0285 4.11257ZM24.094 4.1424C24.0821 4.1424 24.0761 4.14241 24.0761 4.15433V4.1424H24.094ZM24.4815 4.10064H24.4994C24.4934 4.12448 24.4934 4.11259 24.4755 4.13047C24.471 4.12984 24.4668 4.12774 24.4636 4.1245C24.4695 4.11258 24.4755 4.11256 24.4815 4.10064ZM26.9191 9.21459V10.3768C26.9205 10.3865 26.9198 10.3965 26.9167 10.4058C26.9136 10.4151 26.9083 10.4236 26.9014 10.4305C26.8944 10.4375 26.886 10.4427 26.8766 10.4458C26.8673 10.4489 26.8574 10.4498 26.8477 10.4484L23.5516 10.4603L23.5576 11.4855H25.7688C25.7788 11.4845 25.7888 11.4855 25.7982 11.4887C25.8077 11.4918 25.8164 11.4971 25.8237 11.5038C25.831 11.5106 25.8368 11.5188 25.8407 11.528C25.8446 11.5372 25.8466 11.547 25.8464 11.5569L25.8522 12.7253C25.849 12.7439 25.8431 12.7619 25.8345 12.7788C25.8185 12.7942 25.797 12.8028 25.7748 12.8027H23.5636L23.5695 13.9233L26.9012 13.9173C26.9208 13.9174 26.9396 13.9247 26.9539 13.938C26.9683 13.9512 26.9772 13.9693 26.9788 13.9888V15.157C26.9803 15.1681 26.9789 15.1796 26.9747 15.19C26.9705 15.2004 26.9637 15.2096 26.9549 15.2166C26.9494 15.224 26.9423 15.2299 26.934 15.2341C26.9257 15.2382 26.9165 15.2405 26.9072 15.2405H22.145C22.1352 15.241 22.1254 15.2395 22.1161 15.2361C22.1069 15.2328 22.0985 15.2276 22.0913 15.221C22.084 15.2143 22.0782 15.2062 22.0741 15.1973C22.07 15.1883 22.0678 15.1787 22.0675 15.1689L22.0317 9.22653C22.031 9.21565 22.0334 9.20477 22.0387 9.19524C22.044 9.18571 22.0519 9.1779 22.0616 9.17283C22.0663 9.16461 22.0733 9.15801 22.0818 9.15377C22.0903 9.14953 22.0999 9.14797 22.1093 9.14911L26.8417 9.13718C26.8622 9.13749 26.8817 9.14571 26.8961 9.16017C26.9106 9.17464 26.9188 9.19414 26.9191 9.21459ZM26.1801 3.84439H26.2218C26.2352 3.85476 26.2473 3.86681 26.2576 3.88019C26.2236 3.87882 26.1896 3.87482 26.1562 3.86825C26.1585 3.8659 26.1603 3.86305 26.1613 3.85996C26.1623 3.85687 26.1626 3.85359 26.1622 3.85035C26.1681 3.85035 26.1741 3.84439 26.1801 3.84439ZM26.943 3.65362C26.9407 3.65898 26.9364 3.66326 26.9311 3.66555V3.65362H26.943ZM26.9549 3.69538C26.9517 3.69862 26.9475 3.70072 26.943 3.70135C26.9386 3.69397 26.9325 3.6878 26.9251 3.68345C26.9354 3.68252 26.9458 3.6846 26.9549 3.68942V3.69538ZM26.9967 3.51655C26.9973 3.51203 26.9994 3.50783 27.0027 3.50461H27.0206C27.0027 3.52249 27.0265 3.50462 26.9967 3.51655ZM27.2112 3.95163H27.1457C27.1512 3.9424 27.1553 3.93246 27.1576 3.92195C27.1934 3.92195 27.1933 3.91587 27.2112 3.95163ZM27.2649 4.10064C27.2589 4.10064 27.247 4.10661 27.241 4.10661C27.2351 4.10661 27.247 4.09481 27.247 4.08885C27.2538 4.09136 27.2599 4.09531 27.2649 4.10064ZM27.4318 4.33914C27.4311 4.35721 27.4331 4.37534 27.4377 4.39283C27.4041 4.43648 27.3639 4.47464 27.3186 4.50604C27.2769 4.50008 27.2469 4.48814 27.2112 4.48218C27.2116 4.45346 27.2177 4.42502 27.2291 4.39865C27.1993 4.41057 27.1695 4.41656 27.1338 4.42848C27.1099 4.4106 27.1099 4.42263 27.1039 4.39283C27.126 4.3846 27.1452 4.37002 27.1589 4.35092C27.1727 4.33183 27.1806 4.30898 27.1815 4.28544C27.1681 4.27507 27.1561 4.26302 27.1457 4.24965C27.0266 4.3182 26.8853 4.3375 26.7522 4.30334V4.27351C26.8296 4.28334 26.9082 4.27104 26.9788 4.23786C26.945 4.23226 26.9126 4.22007 26.8835 4.20206C26.8853 4.20853 26.8852 4.21533 26.883 4.22171C26.8809 4.22809 26.8769 4.23379 26.8716 4.23786C26.8239 4.21998 26.7762 4.19608 26.7285 4.1782C26.7374 4.1836 26.7479 4.18572 26.7582 4.18416C26.5519 4.11337 26.3409 4.05757 26.1265 4.01726C26.1185 3.99601 26.1125 3.97399 26.1086 3.95163C26.1718 3.92814 26.238 3.91419 26.3052 3.91002C26.2926 3.89665 26.2787 3.88463 26.2636 3.87422C26.2881 3.8405 26.3209 3.81386 26.3589 3.79681C26.3708 3.81469 26.3709 3.8086 26.3947 3.81456V3.80859C26.3768 3.78475 26.3768 3.79081 26.3947 3.76101C26.4734 3.71764 26.5455 3.66346 26.6092 3.60007C26.639 3.58815 26.7166 3.5404 26.7404 3.52848H26.8716C26.9133 3.5404 26.949 3.55235 26.9907 3.56427C26.9871 3.56711 26.9841 3.57077 26.982 3.5749C26.9799 3.57902 26.9789 3.58353 26.9788 3.58814C26.9759 3.58889 26.9733 3.59041 26.9712 3.5925C26.9691 3.5946 26.9676 3.5972 26.9669 3.60007C26.9321 3.59717 26.898 3.58911 26.8656 3.57621V3.58814C26.888 3.59176 26.9087 3.60219 26.9251 3.61797C26.9141 3.62502 26.9057 3.63552 26.9012 3.6478C26.8563 3.65632 26.8136 3.67383 26.7757 3.69946C26.7377 3.72508 26.7055 3.75827 26.6808 3.79681C26.7254 3.78356 26.7692 3.76759 26.8119 3.74908C26.853 3.77743 26.8969 3.80133 26.943 3.82052V3.82649H26.8596V3.86229C26.8628 3.86552 26.867 3.86762 26.8716 3.86825C26.8775 3.86603 26.8839 3.86546 26.8902 3.86651C26.8965 3.86755 26.9023 3.87018 26.9072 3.87422C26.902 3.88151 26.898 3.88958 26.8953 3.89808C26.9202 3.89834 26.9448 3.90448 26.9669 3.91598C26.9728 3.8981 26.955 3.90404 26.9907 3.89808C26.9907 3.93981 26.9788 3.93984 27.0146 3.93388C27.0299 3.93908 27.046 3.94112 27.0622 3.93985C27.0443 3.92197 27.0502 3.9279 27.0502 3.91002C27.0741 3.91598 27.0503 3.91597 27.0741 3.90405C27.0965 3.91776 27.1134 3.93875 27.1218 3.96357C27.1563 3.96292 27.1906 3.96958 27.2224 3.98292C27.2542 3.99626 27.2829 4.01607 27.3066 4.04112C27.2969 4.05212 27.2849 4.06102 27.2716 4.06717C27.2582 4.07333 27.2438 4.07665 27.2291 4.07692C27.241 4.14248 27.247 4.10665 27.235 4.14837C27.2882 4.14727 27.341 4.15745 27.39 4.1782C27.39 4.18416 27.3841 4.19014 27.3841 4.1961C27.3221 4.21856 27.2622 4.24642 27.2052 4.27948C27.2231 4.29736 27.2112 4.28545 27.2291 4.29141C27.2304 4.3022 27.2345 4.3125 27.241 4.32124C27.2622 4.3002 27.2873 4.2836 27.3149 4.27235C27.3426 4.26109 27.3721 4.25534 27.402 4.25561C27.402 4.26157 27.402 4.26754 27.4079 4.26754C27.4059 4.26871 27.4042 4.27051 27.4031 4.27264C27.4021 4.27476 27.4016 4.27712 27.402 4.27948C27.3689 4.29077 27.34 4.31155 27.3186 4.33914C27.3213 4.34765 27.3253 4.35571 27.3305 4.363C27.3624 4.3485 27.3968 4.34038 27.4318 4.33914ZM32.051 4.36897C32.0377 4.37386 32.0234 4.37589 32.0092 4.37493C32.0092 4.36897 32.0033 4.363 32.0033 4.35704C32.0092 4.33915 32.0092 4.33315 32.0152 4.31527C32.0278 4.32864 32.0418 4.34066 32.057 4.35107C32.0547 4.35342 32.053 4.35627 32.052 4.35936C32.051 4.36246 32.0506 4.36573 32.051 4.36897ZM31.5503 3.96357H31.5383C31.5383 3.9604 31.5396 3.95736 31.5418 3.95513C31.5441 3.95289 31.5471 3.95163 31.5503 3.95163H31.5622C31.5562 3.96355 31.5562 3.96357 31.5503 3.96357ZM31.5204 3.96357C31.5252 3.96811 31.5288 3.97378 31.5309 3.98001C31.533 3.98624 31.5334 3.99288 31.5324 3.99936H31.5204V3.96357ZM31.5562 3.91598C31.5503 3.90406 31.5383 3.89807 31.5324 3.88615C31.5405 3.89363 31.5511 3.89788 31.5622 3.89808C31.56 3.90044 31.5583 3.90329 31.5573 3.90638C31.5562 3.90947 31.5558 3.91275 31.5562 3.91598ZM31.6398 4.04112L31.6457 4.03516C31.6475 4.04233 31.6517 4.04867 31.6577 4.05306C31.6561 4.05306 31.6546 4.05368 31.6534 4.0548C31.6523 4.05592 31.6517 4.05744 31.6517 4.05902C31.6493 4.05677 31.6465 4.05496 31.6434 4.05393C31.6403 4.0529 31.637 4.05267 31.6338 4.05306C31.6335 4.0507 31.6339 4.04834 31.635 4.04622C31.636 4.04409 31.6377 4.04229 31.6398 4.04112ZM31.6873 4.1245C31.6746 4.12294 31.6627 4.1176 31.6532 4.10908C31.6436 4.10056 31.6368 4.08937 31.6338 4.07692C31.6461 4.07443 31.6576 4.0694 31.6678 4.06222C31.6781 4.05505 31.6868 4.04583 31.6933 4.03516C31.7012 4.049 31.7049 4.0648 31.7038 4.0807C31.7027 4.09661 31.697 4.11184 31.6873 4.1245ZM31.5801 4.1603C31.6039 4.16626 31.6219 4.1782 31.6457 4.18416C31.6407 4.1875 31.6365 4.19182 31.6334 4.19697C31.6303 4.20212 31.6284 4.20801 31.6278 4.214C31.645 4.19543 31.668 4.1835 31.693 4.18024C31.7181 4.17697 31.7436 4.18255 31.7649 4.1961C31.8062 4.24059 31.8522 4.28052 31.902 4.31527V4.35107C31.8662 4.36299 31.8781 4.38077 31.8304 4.39865L31.8423 4.41058C31.8846 4.44546 31.9188 4.48923 31.9424 4.53864C31.9661 4.58804 31.9787 4.64189 31.9794 4.69667C31.8483 4.69667 31.5444 4.95897 31.4609 4.75036C31.4788 4.74403 31.4951 4.73383 31.5087 4.72053C31.4848 4.72649 31.4549 4.7265 31.4371 4.73246C31.4383 4.7198 31.4424 4.70754 31.449 4.69667H31.5027C31.4967 4.66686 31.4908 4.68484 31.5087 4.64908C31.4848 4.6312 31.4789 4.63712 31.5087 4.60732C31.5087 4.55964 31.4966 4.55971 31.5443 4.52991C31.5111 4.53349 31.4775 4.52999 31.4456 4.51972C31.4138 4.50945 31.3845 4.49259 31.3596 4.47025C31.3724 4.45147 31.3885 4.43524 31.4072 4.42252C31.3915 4.42502 31.3755 4.4243 31.3601 4.42019C31.3447 4.41608 31.3303 4.40866 31.3179 4.39865C31.3232 4.39636 31.3275 4.39223 31.3298 4.38687C31.3179 4.36303 31.3119 4.38683 31.306 4.35107C31.3717 4.35304 31.4376 4.34904 31.5027 4.33914C31.5027 4.3153 31.5205 4.32716 31.5324 4.28544C31.5179 4.29246 31.5019 4.29513 31.486 4.29301C31.4701 4.29089 31.4551 4.28406 31.443 4.27351C31.4565 4.2492 31.4666 4.22319 31.4729 4.1961C31.5115 4.1961 31.5492 4.18351 31.5801 4.1603ZM31.4072 3.66555C31.417 3.66812 31.427 3.67012 31.4371 3.67152L31.455 3.74311C31.4378 3.75551 31.4218 3.76952 31.4072 3.78487C31.398 3.77933 31.3879 3.7753 31.3774 3.77294C31.3762 3.76099 31.3724 3.74934 31.3662 3.73904C31.36 3.72873 31.3517 3.71997 31.3418 3.71328C31.3656 3.70136 31.3774 3.68343 31.4072 3.66555ZM31.4251 3.90405C31.4219 3.90313 31.4184 3.90313 31.4152 3.9042C31.412 3.90526 31.4093 3.90734 31.4072 3.91002V3.89808H31.4251V3.90405ZM31.3418 3.79681C31.3521 3.79389 31.3619 3.78988 31.3714 3.78487C31.383 3.78975 31.395 3.79374 31.4072 3.79681C31.4097 3.8272 31.4157 3.85714 31.4251 3.88615C31.4189 3.88513 31.4128 3.88311 31.4072 3.88019C31.3887 3.84988 31.3668 3.82194 31.3418 3.79681ZM32.3848 5.01854C32.3698 5.02238 32.3561 5.02984 32.3446 5.04023C32.3332 5.05061 32.3244 5.06368 32.3192 5.0782C32.2985 5.06337 32.273 5.05695 32.2477 5.06031V5.04241C32.3033 4.99381 32.3375 4.92527 32.343 4.85164H32.4861C32.4827 4.84491 32.4815 4.83741 32.4826 4.82996C32.4836 4.8225 32.4869 4.81554 32.492 4.81002C32.4716 4.8164 32.4516 4.8244 32.4324 4.83389C32.3648 4.79208 32.284 4.77715 32.206 4.79212C32.1807 4.77404 32.1567 4.75406 32.1344 4.73246C32.1386 4.73128 32.1426 4.72905 32.1457 4.72591C32.1489 4.72278 32.1511 4.71884 32.1523 4.71456C32.1735 4.71365 32.194 4.70637 32.2111 4.69361C32.2281 4.68085 32.2409 4.66326 32.2477 4.64312C32.2239 4.61332 32.2119 4.5894 32.194 4.56556C32.1738 4.57247 32.1538 4.58045 32.1344 4.58942C32.1344 4.58346 32.1284 4.58345 32.1284 4.57749C32.1384 4.56704 32.1465 4.55505 32.1523 4.54184C32.1284 4.518 32.1106 4.52986 32.1047 4.48218C32.1584 4.50307 32.2178 4.50307 32.2714 4.48218C32.2517 4.44524 32.2396 4.40473 32.2358 4.363C32.1225 4.38088 32.1464 4.28553 32.0987 4.22593C32.085 4.2398 32.0675 4.24935 32.0485 4.25358C32.0295 4.2578 32.0096 4.25641 31.9913 4.24965V4.27351C31.9734 4.26755 31.9497 4.25561 31.9318 4.24965V4.25561C31.9345 4.26412 31.9386 4.27218 31.9437 4.27948H31.9378C31.915 4.26018 31.8911 4.24236 31.8662 4.22593C31.8778 4.2116 31.8841 4.19359 31.8841 4.17514C31.8841 4.1567 31.8778 4.13883 31.8662 4.1245C31.8507 4.10777 31.8325 4.09378 31.8125 4.08289C31.8185 4.10673 31.8304 4.12453 31.8364 4.15433H31.8304C31.8125 4.14241 31.8007 4.13046 31.7888 4.1245C31.7891 4.13735 31.7932 4.14985 31.8007 4.1603C31.7986 4.16147 31.797 4.16327 31.7959 4.16539C31.7948 4.16752 31.7944 4.16988 31.7947 4.17223H31.7649C31.7349 4.10496 31.7109 4.03509 31.6933 3.96357H31.6873V3.9755C31.6814 3.98742 31.6814 3.99937 31.6754 4.01129C31.6519 4.01623 31.628 4.01824 31.604 4.01726C31.6159 3.97554 31.6039 3.97561 31.5801 3.94581C31.598 3.93389 31.6099 3.92194 31.6219 3.91598C31.6145 3.90919 31.6084 3.90109 31.604 3.89212C31.5488 3.88582 31.4969 3.86289 31.455 3.82649C31.464 3.81197 31.474 3.79814 31.4848 3.78487C31.5086 3.80871 31.5443 3.82651 31.5741 3.85035V3.84439C31.5616 3.82169 31.5476 3.79988 31.5324 3.77891C31.5443 3.75507 31.5324 3.75505 31.5562 3.76101C31.5617 3.75781 31.5678 3.75577 31.5741 3.75504C31.5648 3.74724 31.5581 3.73678 31.5549 3.72507C31.5517 3.71335 31.5522 3.70086 31.5562 3.68942C31.5443 3.66558 31.5443 3.66568 31.5562 3.6478C31.6278 3.66568 31.6993 3.63574 31.7709 3.65362C31.7778 3.66913 31.7838 3.6851 31.7888 3.70135C31.7764 3.70793 31.7656 3.71734 31.7573 3.72871C31.7491 3.74007 31.7435 3.75314 31.741 3.76698C31.7708 3.78486 31.7589 3.77283 31.7589 3.80859C31.8027 3.79292 31.8493 3.78701 31.8956 3.79113C31.9419 3.79525 31.9868 3.80931 32.0271 3.83246C32.0341 3.88805 32.0321 3.94441 32.0212 3.99936C32.0331 4.00532 32.045 4.01727 32.057 4.02323C32.0357 4.0351 32.0157 4.04911 31.9973 4.06499C32.0664 4.06803 32.1338 4.0874 32.1939 4.12159C32.254 4.15579 32.3051 4.20374 32.343 4.26158C32.3848 4.27946 32.4324 4.29739 32.4682 4.31527C32.5688 4.37839 32.6463 4.4725 32.6888 4.58346C32.7007 4.58346 32.7065 4.58942 32.7185 4.58942C32.79 4.50002 32.9212 4.64304 32.9331 4.7086C32.9373 4.73129 32.9356 4.75466 32.9283 4.77655C32.921 4.79844 32.9083 4.81825 32.8913 4.83389C32.9274 4.8349 32.9633 4.83876 32.9987 4.84567C32.9978 4.8579 32.9997 4.87021 33.0045 4.88147C33.0045 4.88743 32.9987 4.89341 32.9987 4.89937C32.9241 4.93993 32.8374 4.95264 32.7543 4.93516C32.7602 4.94708 32.7602 4.95904 32.7662 4.97096H32.7483C32.7423 4.97096 32.5159 4.9471 32.5159 4.9471C32.5024 4.97483 32.4982 5.00614 32.504 5.03644C32.4678 5.01611 32.4254 5.00973 32.3848 5.01854ZM31.7947 4.08289H31.7828V4.11257C31.7913 4.10988 31.7994 4.10585 31.8067 4.10064C31.8032 4.09908 31.8002 4.09667 31.7981 4.09351C31.796 4.09035 31.7948 4.08669 31.7947 4.08289ZM33.6065 15.3835C33.6006 15.3959 33.5914 15.4064 33.5798 15.4138C33.5682 15.4212 33.5548 15.425 33.5411 15.4251H33.5351L32.0092 15.3776C31.996 15.3786 31.9827 15.3758 31.9711 15.3694C31.9595 15.3631 31.95 15.3534 31.9437 15.3418L30.6503 13.0888L29.8099 13.0649L29.8219 15.2286C29.8203 15.2504 29.8119 15.2711 29.798 15.2881C29.7809 15.301 29.7597 15.3074 29.7383 15.306L28.451 15.2703C28.4321 15.27 28.4141 15.2623 28.4008 15.2489C28.3874 15.2356 28.3798 15.2176 28.3795 15.1987L28.3497 9.23249C28.352 9.21171 28.3581 9.19147 28.3676 9.17283C28.3851 9.16073 28.4058 9.1546 28.4271 9.15508L31.6754 9.25039C32.7542 9.28019 33.3741 9.97751 33.3741 11.1517C33.417 11.5348 33.3282 11.9212 33.1224 12.2473C32.9166 12.5733 32.6061 12.8196 32.2418 12.9457L33.6065 15.306C33.6124 15.318 33.6156 15.3314 33.6156 15.3448C33.6156 15.3582 33.6124 15.3715 33.6065 15.3835ZM31.1689 10.5497L29.7861 10.5079L29.798 11.7596L30.847 11.7954H30.9781C31.2391 11.8313 31.5038 11.7651 31.7172 11.6106C31.8286 11.4689 31.8799 11.2891 31.8602 11.1099C31.8602 10.8238 31.8007 10.5735 31.1689 10.5497ZM24.7556 25.1702C30.4715 25.1702 35.3172 21.7132 37.0576 16.9152C36.2427 19.5503 34.61 21.8575 32.396 23.5025C30.182 25.1474 27.5018 26.0447 24.7437 26.0643C18.4377 26.0643 14.194 22.1127 12.4894 17.0226C14.2655 21.761 19.0815 25.1702 24.7556 25.1702ZM12.7814 29.5511C12.7897 29.7292 12.7447 29.9056 12.6519 30.0579C12.5591 30.2102 12.4229 30.3313 12.2608 30.4055C12.0987 30.4798 11.918 30.5038 11.7421 30.4747C11.5662 30.4455 11.403 30.3644 11.2736 30.2418C11.1441 30.1192 11.0543 29.9607 11.0156 29.7867C10.9769 29.6126 10.9911 29.4311 11.0565 29.2652C11.1218 29.0993 11.2353 28.9566 11.3823 28.8557C11.5293 28.7547 11.7031 28.7 11.8814 28.6987C11.9979 28.6894 12.1151 28.7048 12.2252 28.7438C12.3354 28.7827 12.4362 28.8443 12.5211 28.9246C12.6059 29.005 12.673 29.1022 12.7178 29.2101C12.7627 29.318 12.7843 29.4343 12.7814 29.5511ZM11.8814 29.0862C11.7884 29.078 11.6952 29.0981 11.6138 29.1438C11.5324 29.1895 11.4668 29.2587 11.4254 29.3423C11.3839 29.4259 11.3687 29.5201 11.3817 29.6125C11.3947 29.7049 11.4352 29.7912 11.498 29.8602C11.5608 29.9292 11.6429 29.9777 11.7337 29.9993C11.8245 30.0208 11.9197 30.0145 12.0068 29.9811C12.094 29.9477 12.1691 29.8887 12.2222 29.812C12.2753 29.7353 12.304 29.6444 12.3046 29.5511C12.3095 29.4923 12.3023 29.4331 12.2833 29.3772C12.2643 29.3213 12.234 29.2701 12.1943 29.2264C12.1545 29.1828 12.1064 29.1478 12.0525 29.1237C11.9987 29.0996 11.9404 29.0868 11.8814 29.0862ZM11.3749 15.6278L10.3794 15.6935C10.3673 15.6955 10.3551 15.6943 10.3436 15.6901C10.3321 15.6859 10.3219 15.6789 10.3139 15.6696L7.58407 12.0219L7.596 15.8186C7.59634 15.8379 7.59005 15.8568 7.57811 15.872C7.56616 15.8872 7.54923 15.8977 7.53038 15.902L6.55892 15.9617H6.55296C6.53385 15.9603 6.51534 15.9542 6.49926 15.9438C6.48805 15.9281 6.4818 15.9093 6.48136 15.8901L6.45168 9.9298C6.45135 9.91953 6.45314 9.90937 6.45692 9.89982C6.46069 9.89027 6.46639 9.88162 6.47365 9.87435C6.48091 9.86709 6.48957 9.8614 6.49912 9.85762C6.50867 9.85384 6.51883 9.85205 6.52909 9.85238L7.71518 9.76886C7.72872 9.76603 7.74287 9.76747 7.75563 9.77279C7.7684 9.7781 7.77925 9.78708 7.78677 9.79869L10.3139 13.1604L10.302 9.65565C10.3014 9.64582 10.3029 9.63595 10.3062 9.62669C10.3095 9.61743 10.3147 9.60904 10.3213 9.60181C10.328 9.59458 10.3361 9.58868 10.3451 9.58464C10.354 9.58059 10.3636 9.57846 10.3734 9.57823L11.3331 9.51261C11.3437 9.51095 11.3547 9.5117 11.365 9.51479C11.3753 9.51788 11.3848 9.52326 11.3928 9.53051C11.4008 9.53811 11.4071 9.54742 11.4112 9.55772C11.4154 9.56801 11.4171 9.57909 11.4165 9.59017L11.4463 15.5445C11.4464 15.5646 11.4392 15.5841 11.4261 15.5995C11.413 15.6148 11.3948 15.6248 11.3749 15.6278ZM5.09869 30.0457H4.43107L4.28206 30.3556H3.84697L4.63974 28.7404H4.98548L5.74826 30.3556H5.23576L5.09869 30.0457ZM4.77084 29.3603L4.62184 29.6703H4.91985L4.77084 29.3603ZM3.06018 16.4624C2.95129 16.4739 2.84199 16.4798 2.73248 16.4801C1.44506 16.4801 0.765552 15.6518 0.753631 14.0783L0.741699 10.4663C0.742006 10.4474 0.749597 10.4295 0.762944 10.4161C0.776292 10.4028 0.794419 10.395 0.813292 10.3947L1.92779 10.2815C1.93809 10.2797 1.94864 10.281 1.9582 10.2853C1.96776 10.2895 1.97594 10.2965 1.98148 10.3054C1.99243 10.311 2.0015 10.3194 2.00782 10.33C2.01414 10.3405 2.01736 10.3526 2.01713 10.3649L2.02906 13.9293C2.02906 14.716 2.33303 15.1153 2.91117 15.1153C2.95885 15.1153 3.00667 15.1094 3.04839 15.1094C3.73382 15.0438 4.07951 14.5669 4.07951 13.7146L4.06161 10.1444C4.06219 10.1253 4.06887 10.1069 4.08067 10.0919C4.09247 10.0769 4.10868 10.066 4.12709 10.0609L5.25366 9.95366C5.2639 9.95267 5.27424 9.95443 5.28364 9.95861C5.29304 9.96279 5.30109 9.96926 5.30721 9.97752C5.31769 9.9821 5.32663 9.98955 5.33297 9.99906C5.33931 10.0086 5.34282 10.0198 5.34301 10.0312L5.35494 13.649C5.35494 14.6146 5.06283 16.2657 3.06018 16.4624ZM9.34829 28.6987C9.55288 28.704 9.754 28.7528 9.93835 28.8417L9.99801 28.8656V29.2947L9.85497 29.2232C9.69947 29.1377 9.52569 29.0907 9.34829 29.0862C9.23387 29.0978 9.12795 29.1514 9.05086 29.2368C8.97376 29.3221 8.93095 29.433 8.93095 29.548C8.93095 29.663 8.97376 29.7739 9.05086 29.8593C9.12795 29.9446 9.23387 29.9984 9.34829 30.01C9.51218 30.019 9.67532 29.9817 9.81917 29.9026L10.004 29.8014V30.2484L9.91448 30.2842C9.7354 30.36 9.54276 30.3985 9.34829 30.3974C9.23296 30.4035 9.1176 30.3861 9.00924 30.3462C8.90087 30.3063 8.80186 30.2446 8.71806 30.1652C8.63427 30.0857 8.56751 29.99 8.52191 29.8839C8.47631 29.7778 8.45279 29.6635 8.45279 29.548C8.45279 29.4325 8.47631 29.3183 8.52191 29.2122C8.56751 29.1061 8.63427 29.0104 8.71806 28.9309C8.80186 28.8514 8.90087 28.79 9.00924 28.75C9.1176 28.7101 9.23296 28.6926 9.34829 28.6987ZM14.6172 29.6703L15.0523 28.7404H15.4814V30.3556H15.0225V29.6941L14.7006 30.3556H14.4443L14.1105 29.6822V30.3556H13.7232V28.7404H14.1583L14.6172 29.6703ZM17.3113 28.6987C17.5157 28.705 17.7167 28.7537 17.9013 28.8417L17.9608 28.8656V29.2947L17.8178 29.2232C17.6627 29.1368 17.4888 29.0897 17.3113 29.0862C17.1978 29.0991 17.0931 29.1533 17.017 29.2385C16.941 29.3237 16.8989 29.4338 16.8989 29.548C16.8989 29.6622 16.941 29.7725 17.017 29.8577C17.0931 29.9429 17.1978 29.9971 17.3113 30.01C17.477 30.0187 17.642 29.9815 17.7881 29.9026L17.9668 29.8014V30.2484L17.8775 30.2842C17.6984 30.36 17.5057 30.3985 17.3113 30.3974C17.1971 30.4017 17.0831 30.3829 16.9763 30.3421C16.8695 30.3013 16.7721 30.2395 16.6898 30.1602C16.6075 30.0809 16.542 29.9859 16.4973 29.8807C16.4525 29.7755 16.4294 29.6623 16.4294 29.548C16.4294 29.4337 16.4525 29.3207 16.4973 29.2155C16.542 29.1104 16.6075 29.0151 16.6898 28.9359C16.7721 28.8566 16.8695 28.7947 16.9763 28.754C17.0831 28.7132 17.1971 28.6944 17.3113 28.6987ZM19.9337 28.7404L20.6967 30.3556H20.1959L20.0469 30.0457H19.3854L19.2364 30.3556H18.7954L19.5881 28.7404H19.9337ZM19.8682 29.6703L19.7252 29.3603L19.5762 29.6703H19.8682ZM22.1748 29.7357L22.1509 29.7298C22.006 29.7132 21.8703 29.6504 21.764 29.5505C21.6577 29.4506 21.5865 29.3191 21.5609 29.1755C21.5691 29.0996 21.5932 29.0262 21.6314 28.9602C21.6697 28.8941 21.7213 28.8367 21.7831 28.7918C21.8448 28.7469 21.9153 28.7154 21.99 28.6994C22.0646 28.6834 22.1418 28.6831 22.2166 28.6987C22.4325 28.7047 22.6452 28.7533 22.8424 28.8417L22.9019 28.8656V29.3007L22.7589 29.2232C22.5886 29.1431 22.4045 29.0966 22.2166 29.0862C22.1152 29.0862 22.0437 29.1159 22.0437 29.1576C22.0809 29.2035 22.1271 29.2416 22.1793 29.2692C22.2315 29.2969 22.2888 29.3136 22.3477 29.3186C22.4073 29.3364 22.455 29.3544 22.5146 29.3722C22.637 29.3913 22.7504 29.4481 22.8391 29.5346C22.9277 29.6212 22.9873 29.7332 23.0093 29.8551C23.0093 30.022 22.9378 30.3974 22.2583 30.3974C22.0427 30.388 21.8314 30.3331 21.6384 30.2365L21.5847 30.2066V29.7656L21.7278 29.8431C21.8909 29.9353 22.0717 29.9922 22.2583 30.01C22.3835 30.01 22.5265 29.9921 22.5265 29.9026C22.4289 29.8127 22.3062 29.7545 22.1748 29.7357ZM25.4052 29.122H24.8748V30.3556H24.4218V29.122H23.8914V28.7404H25.4052V29.122ZM29.0231 28.6987C29.2297 28.7034 29.4329 28.7522 29.6192 28.8417L29.6728 28.8656V29.2947L29.5298 29.2232C29.3747 29.1368 29.2007 29.0897 29.0231 29.0862C28.9087 29.0978 28.8026 29.1514 28.7255 29.2368C28.6485 29.3221 28.6058 29.433 28.6058 29.548C28.6058 29.663 28.6485 29.7739 28.7255 29.8593C28.8026 29.9446 28.9087 29.9984 29.0231 30.01C29.1889 30.0187 29.3539 29.9815 29.5 29.9026L29.6788 29.8014V30.2484L29.5953 30.2842C29.4141 30.3599 29.2195 30.3983 29.0231 30.3974C28.9089 30.4017 28.7951 30.3829 28.6883 30.3421C28.5815 30.3013 28.484 30.2395 28.4016 30.1602C28.3193 30.0809 28.2538 29.9859 28.2091 29.8807C28.1644 29.7755 28.1415 29.6623 28.1415 29.548C28.1415 29.4337 28.1644 29.3207 28.2091 29.2155C28.2538 29.1104 28.3193 29.0151 28.4016 28.9359C28.484 28.8566 28.5815 28.7947 28.6883 28.754C28.7951 28.7132 28.9089 28.6944 29.0231 28.6987ZM31.4788 28.6987C31.6448 28.7072 31.8047 28.7643 31.9387 28.8627C32.0726 28.9611 32.1749 29.0965 32.2327 29.2523C32.2905 29.4082 32.3014 29.5777 32.264 29.7397C32.2266 29.9016 32.1425 30.049 32.0222 30.1637C31.9019 30.2784 31.7505 30.3554 31.5869 30.385C31.4234 30.4147 31.2547 30.3958 31.1018 30.3306C30.9489 30.2654 30.8184 30.1567 30.7265 30.0182C30.6346 29.8796 30.5854 29.7173 30.5848 29.5511C30.582 29.4348 30.6034 29.3192 30.6479 29.2117C30.6924 29.1043 30.759 29.0074 30.8432 28.9271C30.9274 28.8469 31.0274 28.785 31.1369 28.7457C31.2463 28.7063 31.3628 28.6903 31.4788 28.6987ZM31.4788 30.01C31.5943 29.9999 31.7017 29.9467 31.78 29.8612C31.8583 29.7757 31.9018 29.664 31.9018 29.548C31.9018 29.4321 31.8583 29.3204 31.78 29.2349C31.7017 29.1494 31.5943 29.0963 31.4788 29.0862C31.3644 29.0978 31.2583 29.1514 31.1812 29.2368C31.1042 29.3221 31.0615 29.433 31.0615 29.548C31.0615 29.663 31.1042 29.7739 31.1812 29.8593C31.2583 29.9446 31.3644 29.9984 31.4788 30.01ZM34.0834 29.6703L34.5125 28.7404H34.9416V30.3556H34.4828V29.6941L34.1669 30.3556H33.9045L33.5709 29.6822V30.3556H33.1893V28.7404H33.6185L34.0834 29.6703ZM37.5284 29.3007C37.5358 29.3922 37.5218 29.4843 37.4874 29.5694C37.453 29.6546 37.3994 29.7304 37.3305 29.7912C37.2617 29.8519 37.1796 29.8957 37.0909 29.9192C37.0021 29.9427 36.9091 29.9452 36.8192 29.9265H36.4854V30.3556H36.0264V28.7404H36.8966C36.9768 28.725 37.0594 28.7282 37.1382 28.7497C37.2169 28.7713 37.2895 28.8107 37.3506 28.8648C37.4117 28.919 37.4595 28.9864 37.4903 29.062C37.5211 29.1376 37.5342 29.2192 37.5284 29.3007ZM36.4854 29.122V29.5451H36.7476C37.0099 29.5451 37.0397 29.4973 37.0397 29.3007C37.0397 29.2172 37.0159 29.122 36.8252 29.122H36.4854ZM42.0999 29.6345V28.7404H42.4874V30.3556H42.1118L41.2715 29.3842V30.3556H40.8841V28.7404H41.3192L42.0999 29.6345Z" fill="white"/>
</g>
<defs>
<clipPath id="clip0_280_1946">
<rect width="51.2583" height="30.3974" fill="white" transform="translate(0.741699)"/>
</clipPath>
</defs>
</svg>
