<svg width="22" height="22" viewBox="0 0 22 22" fill="none" xmlns="http://www.w3.org/2000/svg"><path d="M13.75 4.94995C13.75 5.6793 13.4602 6.37877 12.9445 6.8945C12.4288 7.41022 11.7293 7.69995 11 7.69995C10.2706 7.69995 9.57113 7.41022 9.05541 6.8945C8.53968 6.37877 8.24995 5.6793 8.24995 4.94995C8.24995 4.22061 8.53968 3.52113 9.05541 3.00541C9.57113 2.48968 10.2706 2.19995 11 2.19995C11.7293 2.19995 12.4288 2.48968 12.9445 3.00541C13.4602 3.52113 13.75 4.22061 13.75 4.94995ZM19.25 5.49995C19.25 6.08343 19.0182 6.64301 18.6056 7.05559C18.193 7.46817 17.6334 7.69995 17.05 7.69995C16.4665 7.69995 15.9069 7.46817 15.4943 7.05559C15.0817 6.64301 14.85 6.08343 14.85 5.49995C14.85 4.91647 15.0817 4.3569 15.4943 3.94432C15.9069 3.53174 16.4665 3.29995 17.05 3.29995C17.6334 3.29995 18.193 3.53174 18.6056 3.94432C19.0182 4.3569 19.25 4.91647 19.25 5.49995ZM4.94995 7.69995C5.53343 7.69995 6.09301 7.46817 6.50559 7.05559C6.91817 6.64301 7.14995 6.08343 7.14995 5.49995C7.14995 4.91647 6.91817 4.3569 6.50559 3.94432C6.09301 3.53174 5.53343 3.29995 4.94995 3.29995C4.36647 3.29995 3.8069 3.53174 3.39432 3.94432C2.98174 4.3569 2.74995 4.91647 2.74995 5.49995C2.74995 6.08343 2.98174 6.64301 3.39432 7.05559C3.8069 7.46817 4.36647 7.69995 4.94995 7.69995ZM6.59995 10.175C6.59995 9.41595 7.21595 8.79995 7.97495 8.79995H14.025C14.784 8.79995 15.4 9.41595 15.4 10.175V15.4C15.4 16.5669 14.9364 17.6861 14.1112 18.5112C13.2861 19.3364 12.1669 19.8 11 19.8C9.833 19.8 8.71384 19.3364 7.88868 18.5112C7.06352 17.6861 6.59995 16.5669 6.59995 15.4V10.175ZM5.49995 10.175C5.49995 9.66565 5.65395 9.19375 5.91685 8.79995H3.57495C2.81595 8.79995 2.19995 9.41595 2.19995 10.175V14.3C2.1999 14.7709 2.30064 15.2364 2.49541 15.6651C2.69018 16.0939 2.97447 16.476 3.32916 16.7858C3.68386 17.0956 4.10075 17.3259 4.55182 17.4612C5.0029 17.5965 5.47771 17.6337 5.94435 17.5703C5.65055 16.8844 5.49935 16.146 5.49995 15.4V10.175ZM16.5 15.4C16.5 16.17 16.3416 16.9048 16.0556 17.5703C16.2008 17.5901 16.3489 17.6 16.5 17.6C17.3752 17.6 18.2145 17.2523 18.8334 16.6334C19.4523 16.0145 19.8 15.1752 19.8 14.3V10.175C19.8 9.41595 19.184 8.79995 18.425 8.79995H16.0831C16.3471 9.19375 16.5 9.66565 16.5 10.175V15.4Z" fill="#48230E"/></svg>
