<svg width="24" height="24" viewBox="0 0 24 24" fill="none" xmlns="http://www.w3.org/2000/svg"><path d="M12 2C18.0751 2 23 5.98461 23 10.9C23 12.9275 22.162 14.7968 20.7509 16.2933C18.3751 18.8721 11.639 23.422 11.0552 22.9685C10.4253 22.4792 11.3835 21.7913 11.3001 20.2076C11.2827 19.878 11.0804 19.7822 10.9603 19.7607C5.37279 19.3369 1 15.5316 1 10.9C1 5.98461 5.92487 2 12 2ZM9.24716 8.0807C8.93146 8.0807 8.67557 8.33625 8.67557 8.65152V12.9385C8.67557 13.2537 8.93146 13.5093 9.24716 13.5093C9.56286 13.5093 9.81876 13.2537 9.81876 12.9385V8.65152C9.81876 8.33625 9.56286 8.0807 9.24716 8.0807ZM5.42096 8.08087C5.10532 8.08087 4.84942 8.33642 4.84942 8.65164V12.9386C4.84942 13.2538 5.10532 13.5094 5.42096 13.5094L7.56741 13.5093C7.88305 13.5093 8.13894 13.2538 8.13894 12.9386C8.13894 12.6233 7.88305 12.3677 7.56741 12.3677H5.99255V8.65164C5.99255 8.33642 5.73666 8.08087 5.42096 8.08087ZM11.2068 8.08075C10.8911 8.08075 10.6352 8.3363 10.6352 8.65158V12.9385C10.6352 13.2538 10.8911 13.5093 11.2068 13.5093C11.5225 13.5093 11.7784 13.2538 11.7784 12.9385V10.2715L14.0042 13.2909C14.1926 13.5406 14.5468 13.5921 14.7985 13.4078C14.9472 13.3047 15.0445 13.133 15.0445 12.9386V8.65164C15.0445 8.33636 14.7886 8.08081 14.473 8.08081C14.1573 8.08081 13.9014 8.33636 13.9014 8.65164V11.3277L11.6851 8.32087L11.5068 8.16563C11.4196 8.1118 11.3168 8.08075 11.2068 8.08075ZM16.386 8.08081C16.2031 8.08081 16.0402 8.16667 15.9356 8.30023C15.8597 8.39713 15.8144 8.51912 15.8144 8.65169L15.8145 8.65834V12.9317L15.8144 12.9386C15.8144 13.2538 16.0703 13.5094 16.386 13.5094H18.5557C18.8714 13.5094 19.1272 13.2538 19.1272 12.9386C19.1272 12.6233 18.8714 12.3677 18.5557 12.3677H16.9576V11.3659H18.5557C18.8714 11.3659 19.1272 11.1103 19.1272 10.7951C19.1272 10.4799 18.8714 10.2243 18.5557 10.2243H16.9576V9.22246H18.5557C18.8714 9.22246 19.1272 8.96691 19.1272 8.65169C19.1272 8.33642 18.8714 8.08087 18.5557 8.08087H16.3935L16.386 8.08081Z" fill="black"/></svg>