<svg width="54" height="54" viewBox="0 0 54 54" fill="none" xmlns="http://www.w3.org/2000/svg">
<path d="M14.5625 18.5625V14.3438C14.5625 13.2249 15.007 12.1518 15.7981 11.3606C16.5893 10.5695 17.6624 10.125 18.7812 10.125H40.7188C41.8376 10.125 42.9107 10.5695 43.7019 11.3606C44.493 12.1518 44.9375 13.2249 44.9375 14.3438V39.6562C44.9375 40.7751 44.493 41.8482 43.7019 42.6394C42.9107 43.4305 41.8376 43.875 40.7188 43.875H18.7812C17.6624 43.875 16.5893 43.4305 15.7981 42.6394C15.007 41.8482 14.5625 40.7751 14.5625 39.6562V35.4375" stroke="#48230E" stroke-width="3.375" stroke-linecap="round" stroke-linejoin="round"/>
<path d="M28.6875 35.4375L37.125 27L28.6875 18.5625M5.0625 27H35.4375" stroke="#48230E" stroke-width="3.375" stroke-linecap="round" stroke-linejoin="round"/>
</svg>
